<svg width="128.000000" height="128.000000" viewBox="0 0 128 128" fill="none" xmlns="http://www.w3.org/2000/svg" xmlns:xlink="http://www.w3.org/1999/xlink">
	<desc>
			Created with Pixso.
	</desc>
	<defs/>
	<path id="Vector" d="M64.16 125L64.15 125Q63.74 124.99 63.45 124.81Q63.03 124.53 62.86 123.85L62.86 123.85Q60.42 114.05 53.54 103.07Q45.43 89.94 30.46 78.76Q17.39 68.89 4.23 65.27Q3.52 65.07 3.21 64.61Q3 64.27 3 63.79Q3 63.3 3.22 62.96Q3.51 62.53 4.16 62.34Q17.01 58.67 28.87 50.46Q38.46 43.79 45.84 35.2Q48.93 31.62 51.63 27.7Q59.75 15.81 62.79 4.14Q62.97 3.47 63.39 3.19Q63.7 3 64.13 3Q64.57 3 64.88 3.2Q65.32 3.48 65.49 4.17Q67.25 11.19 70.98 18.52Q75.66 27.53 82.9 35.8Q83.05 35.97 83.2 36.13Q90.49 44.03 99.41 50.44Q111.39 58.93 123.83 62.38Q124.5 62.57 124.79 63.01Q125 63.33 125 63.79Q125 64.26 124.79 64.59Q124.49 65.05 123.77 65.25Q115.84 67.42 107.5 72.23Q105.76 73.24 104.07 74.33Q96.02 79.48 88.93 86.14Q80.32 94.07 74.78 102.9Q67.89 113.89 65.45 123.85Q65.28 124.53 64.85 124.81Q64.57 124.99 64.16 125ZM64.16 128C66.18 127.99 67.88 126.53 68.36 124.56C69.92 118.23 72.91 111.54 77.32 104.49C80.88 98.83 85.43 93.44 90.99 88.33C96.54 83.1 102.55 78.6 108.99 74.83C114.33 71.76 119.52 69.53 124.56 68.15C126.54 67.6 128 65.82 128 63.79C128 61.77 126.58 60.04 124.63 59.49C116.68 57.28 108.85 53.45 101.16 48C95.27 43.77 89.93 39.05 85.16 33.83C80.49 28.5 76.66 22.94 73.66 17.16C71.28 12.48 69.52 7.91 68.4 3.44C67.9 1.46 66.15 0 64.13 0C62.12 0 60.4 1.43 59.89 3.38C57.95 10.83 54.37 18.37 49.16 25.99C43.27 34.55 35.94 41.89 27.16 48C19.52 53.28 11.58 57.11 3.34 59.46C1.39 60.02 0 61.72 0 63.79C0 65.85 1.45 67.61 3.44 68.16C11.85 70.48 20.25 74.81 28.66 81.16C38.33 88.39 45.78 96.22 51 104.67C55.4 111.7 58.39 118.34 59.95 124.58C60.43 126.53 62.14 127.99 64.15 128L64.16 128Z" fill="#F55E1D" fill-opacity="1.000000" fill-rule="evenodd"/>
</svg>
