<svg width="128.000000" height="128.000000" viewBox="0 0 128 128" fill="none" xmlns="http://www.w3.org/2000/svg" xmlns:xlink="http://www.w3.org/1999/xlink">
	<desc>
			Created with Pixso.
	</desc>
	<defs/>
	<path d="M62.7 49.09C56.21 21.87 32.33 1.4 3.45 0.06C2.46 0.02 1.45 0 0.45 0C0.45 1 0.47 2 0.52 3C1.84 31.72 22.1 55.5 49.1 62.14C52.24 62.92 55.48 63.46 58.78 63.75C55.47 64.02 52.24 64.53 49.09 65.29C21.87 71.78 1.4 95.66 0.06 124.54C0.02 125.54 0 126.54 0 127.54L0.03 127.54C1.02 127.54 2.01 127.52 3 127.47C31.72 126.15 55.5 105.89 62.14 78.89C62.92 75.75 63.46 72.51 63.75 69.21C64.02 72.52 64.53 75.75 65.29 78.9C71.78 106.12 95.66 126.59 124.54 127.93C125.54 127.97 126.54 128 127.54 128L127.54 127.96C127.54 126.97 127.52 125.98 127.47 125C126.15 96.27 105.89 72.49 78.89 65.85C75.75 65.07 72.51 64.53 69.21 64.24C72.52 63.97 75.75 63.46 78.9 62.7C106.12 56.21 126.59 32.33 127.93 3.45C127.97 2.46 128 1.46 128 0.45L127.99 0.45C126.99 0.45 125.99 0.47 125 0.52C96.27 1.84 72.49 22.1 65.85 49.1C65.07 52.24 64.53 55.48 64.24 58.78C63.97 55.47 63.46 52.24 62.7 49.09ZM124.93 3.52Q114.72 3.97 105.71 7.5Q95.41 11.53 86.69 19.56Q77.85 27.7 72.97 37.76Q68.24 47.5 67.23 59.04L61.25 59.02Q60.31 47.39 55.6 37.57Q50.75 27.45 41.91 19.25Q33.16 11.14 22.82 7.08Q13.78 3.52 3.52 3.06Q3.97 13.27 7.5 22.28Q11.53 32.58 19.56 41.3Q27.7 50.14 37.76 55.02Q47.5 59.75 59.04 60.76L59.02 66.74Q47.39 67.68 37.57 72.39Q27.45 77.24 19.25 86.08Q11.14 94.83 7.08 105.17Q3.52 114.21 3.06 124.47Q13.27 124.02 22.28 120.49Q32.58 116.46 41.3 108.43Q50.14 100.29 55.02 90.23Q59.75 80.49 60.76 68.95L66.74 68.97Q67.68 80.6 72.39 90.42Q77.24 100.54 86.08 108.74Q94.83 116.85 105.17 120.91Q114.21 124.47 124.47 124.93Q124.02 114.72 120.49 105.71Q116.46 95.41 108.43 86.69Q100.29 77.85 90.23 72.97Q80.49 68.24 68.95 67.23L68.97 61.25Q80.6 60.31 90.42 55.6Q100.54 50.75 108.74 41.91Q116.85 33.16 120.91 22.82Q124.47 13.78 124.93 3.52Z" fill="#F269AF" fill-opacity="1.000000" fill-rule="evenodd"/>
</svg>
