<svg width="102.000000" height="64.000000" viewBox="0 0 102 64" fill="none" xmlns="http://www.w3.org/2000/svg" xmlns:xlink="http://www.w3.org/1999/xlink">
	<desc>
			Created with Pixso.
	</desc>
	<defs>
		<clipPath id="clip12_1033">
			<rect id="Logo vert 1" rx="0.000000" width="101.000000" height="63.000000" transform="translate(0.500000 0.500000)" fill="white" fill-opacity="0"/>
		</clipPath>
	</defs>
	<rect id="Logo vert 1" rx="0.000000" width="101.000000" height="63.000000" transform="translate(0.500000 0.500000)" fill="#FFFFFF" fill-opacity="0"/>
	<g clip-path="url(#clip12_1033)">
		<path id="Vector" d="M11.05 31.97C11.05 31.97 11.97 29.55 11.97 27.84C11.97 26.13 11.56 24.74 11.05 24.74C10.54 24.74 10.13 26.13 10.13 27.84C10.13 29.55 11.05 31.97 11.05 31.97ZM11.05 31.97C11.05 31.97 12.14 34.32 13.38 35.53C14.61 36.74 15.9 37.44 16.26 37.09C16.62 36.73 15.91 35.46 14.68 34.25C13.45 33.04 11.05 31.97 11.05 31.97ZM11.05 31.97C11.05 31.97 13.52 31.07 15.26 31.07C17 31.07 18.42 31.47 18.42 31.97C18.42 32.47 17 32.88 15.26 32.88C13.52 32.88 11.05 31.97 11.05 31.97ZM11.05 31.97C11.05 31.97 8.66 33.04 7.43 34.25C6.19 35.47 5.49 36.73 5.85 37.09C6.2 37.44 7.5 36.74 8.73 35.53C9.96 34.32 11.05 31.97 11.05 31.97ZM11.05 31.97C11.05 31.98 11.97 34.39 11.97 36.1C11.97 37.81 11.56 39.2 11.05 39.2C10.54 39.2 10.13 37.82 10.13 36.1C10.13 34.39 11.05 31.97 11.05 31.97ZM11.05 31.97C11.05 31.97 8.59 31.07 6.84 31.07C5.1 31.07 3.69 31.47 3.69 31.97C3.69 32.47 5.1 32.88 6.84 32.88C8.59 32.88 11.05 31.97 11.05 31.97ZM11.05 31.97C11.05 31.97 13.45 30.9 14.68 29.69C15.91 28.48 16.62 27.21 16.26 26.86C15.9 26.5 14.61 27.2 13.38 28.41C12.14 29.62 11.05 31.97 11.05 31.97ZM8.73 28.41C9.96 29.62 11.05 31.97 11.05 31.97C11.05 31.97 8.66 30.9 7.43 29.69C6.19 28.48 5.49 27.21 5.85 26.86C6.2 26.5 7.5 27.2 8.73 28.41Z" fill="#FFFFFF" fill-opacity="1.000000" fill-rule="nonzero"/>
		<path id="Vector" d="M38 37.31C32.43 41.88 27.91 37.44 32.57 31.97C27.91 26.5 32.43 22.07 38 26.64C43.56 22.07 48.08 26.5 43.43 31.97C48.08 37.44 43.56 41.88 38 37.31ZM37.99 34.18C39.24 34.18 40.24 33.19 40.24 31.97C40.24 30.75 39.24 29.76 37.99 29.76C36.75 29.76 35.74 30.75 35.74 31.97C35.74 33.19 36.75 34.18 37.99 34.18Z" fill="#FFFFFF" fill-opacity="1.000000" fill-rule="evenodd"/>
		<path id="Vector" d="M59.53 31.97C61.56 31.97 63.21 30.35 63.21 28.35C63.21 30.35 64.86 31.97 66.89 31.97C64.86 31.97 63.21 33.59 63.21 35.59C63.21 33.59 61.56 31.97 59.53 31.97ZM59.53 31.97C57.5 31.97 55.85 33.59 55.85 35.59C55.85 37.58 57.5 39.2 59.53 39.2C61.56 39.2 63.21 37.58 63.21 35.59C63.21 37.58 64.86 39.2 66.89 39.2C68.93 39.2 70.58 37.58 70.58 35.59C70.58 33.59 68.93 31.97 66.89 31.97C68.93 31.97 70.58 30.35 70.58 28.35C70.58 26.36 68.93 24.74 66.89 24.74C64.86 24.74 63.21 26.36 63.21 28.35C63.21 26.36 61.56 24.74 59.53 24.74C57.5 24.74 55.85 26.36 55.85 28.35C55.85 30.35 57.5 31.97 59.53 31.97Z" fill="#FFFFFF" fill-opacity="1.000000" fill-rule="nonzero"/>
		<path id="Vector" d="M87.51 39.26C87.27 39.26 87.08 39.09 87.02 38.87C86.84 38.16 86.49 37.4 85.98 36.6C85.38 35.64 84.52 34.75 83.39 33.93C82.42 33.2 81.45 32.71 80.47 32.45C80.24 32.38 80.07 32.18 80.07 31.95C80.07 31.71 80.23 31.52 80.46 31.46C81.42 31.19 82.34 30.75 83.22 30.15C84.24 29.45 85.09 28.62 85.77 27.65C86.37 26.78 86.79 25.92 87.01 25.07C87.07 24.85 87.27 24.69 87.51 24.69C87.74 24.69 87.94 24.85 88 25.08C88.13 25.59 88.33 26.11 88.61 26.64C88.96 27.3 89.4 27.93 89.94 28.54C90.5 29.13 91.11 29.67 91.8 30.15C92.69 30.77 93.59 31.21 94.52 31.46C94.74 31.52 94.91 31.72 94.91 31.95C94.91 32.18 94.74 32.38 94.51 32.44C93.92 32.6 93.32 32.85 92.7 33.2C91.96 33.63 91.26 34.15 90.62 34.74C89.97 35.32 89.45 35.94 89.03 36.58C88.52 37.38 88.18 38.14 88 38.87C87.94 39.09 87.74 39.26 87.51 39.26L87.51 39.26Z" fill="#FFFFFF" fill-opacity="1.000000" fill-rule="nonzero"/>
		<path id="Vector" d="M10.45 19.33L11.9 19.33C20.09 19.33 21.97 14.09 21.97 10.22L21.97 0.39L15.93 0.39L15.93 10.07C15.93 12.91 14.46 14.69 11.31 14.69L11 14.69C6.84 14.69 6.42 11.93 6.35 11.1L0.25 11.1L0.25 11.25C0.25 14.79 2.45 19.33 10.45 19.33Z" fill="#FFFFFF" fill-opacity="1.000000" fill-rule="nonzero"/>
		<path id="Vector" d="M38.31 0.06C26.15 0.06 24.78 5.96 24.78 9.3L24.78 10.05C24.78 13.34 26.15 19.38 38.31 19.38L39.42 19.38C51.54 19.38 52.93 13.34 52.93 10.05L52.93 9.3C52.93 5.96 51.51 0.06 39.42 0.06L38.31 0.06ZM46.63 9.47L46.63 9.82C46.63 11.98 45.31 14.84 38.86 14.84C32.37 14.84 31.08 11.91 31.08 9.77L31.08 9.47C31.08 7.31 32.27 4.58 38.86 4.58C45.34 4.58 46.63 7.31 46.63 9.47Z" fill="#FFFFFF" fill-opacity="1.000000" fill-rule="nonzero"/>
		<path id="Vector" d="M61.99 19.06L61.99 10.25L72.14 19.06L79.99 19.06L68.42 8.92L79.47 0.39L71.83 0.39L61.99 8.17L61.99 0.39L55.97 0.39L55.97 19.06L61.99 19.06Z" fill="#FFFFFF" fill-opacity="1.000000" fill-rule="nonzero"/>
		<path id="Vector" d="M90.45 0.39L84.43 0.39L84.43 19.06L90.45 19.06L90.45 0.39Z" fill="#FFFFFF" fill-opacity="1.000000" fill-rule="nonzero"/>
		<path id="Vector" d="M10.45 63.63L11.9 63.63C20.09 63.63 21.98 58.39 21.98 54.52L21.98 44.69L15.93 44.69L15.93 54.37C15.93 57.21 14.46 58.99 11.31 58.99L11 58.99C6.84 58.99 6.42 56.23 6.35 55.4L0.25 55.4L0.25 55.55C0.25 59.09 2.45 63.63 10.45 63.63Z" fill="#FFFFFF" fill-opacity="1.000000" fill-rule="nonzero"/>
		<path id="Vector" d="M38.32 44.36C26.15 44.36 24.78 50.26 24.78 53.59L24.78 54.35C24.78 57.63 26.15 63.68 38.32 63.68L39.43 63.68C51.54 63.68 52.94 57.63 52.94 54.35L52.94 53.59C52.94 50.26 51.52 44.36 39.43 44.36L38.32 44.36ZM46.64 53.77L46.64 54.12C46.64 56.28 45.32 59.14 38.86 59.14C32.38 59.14 31.08 56.2 31.08 54.07L31.08 53.77C31.08 51.61 32.27 48.88 38.86 48.88C45.34 48.88 46.64 51.61 46.64 53.77Z" fill="#FFFFFF" fill-opacity="1.000000" fill-rule="nonzero"/>
		<path id="Vector" d="M62.93 63.35L68.95 63.35L68.95 56.13L78.94 44.69L72.15 44.69L66.08 51.56L60.11 44.69L52.65 44.69L62.93 56.13L62.93 63.35Z" fill="#FFFFFF" fill-opacity="1.000000" fill-rule="nonzero"/>
		<path id="Vector" d="M91.47 55.73L84.18 55.73L87.75 48.73L91.47 55.73ZM95.5 63.35L101.98 63.35L91.7 44.69L83.9 44.69L74.18 63.35L80.31 63.35L82.04 59.94L93.69 59.94L95.5 63.35Z" fill="#FFFFFF" fill-opacity="1.000000" fill-rule="nonzero"/>
	</g>
</svg>
