<svg width="32.000000" height="32.000000" viewBox="0 0 32 32" fill="none" xmlns="http://www.w3.org/2000/svg" xmlns:xlink="http://www.w3.org/1999/xlink">
	<desc>
			Created with Pixso.
	</desc>
	<defs/>
	<rect rx="0.000000" width="30.666666" height="30.666666" transform="translate(0.666667 0.666667)" fill="#FFFFFF" fill-opacity="0"/>
	<path d="M32 16C32 24.83 24.83 32 16 32C7.16 32 0 24.83 0 16C0 7.16 7.16 0 16 0C24.83 0 32 7.16 32 16Z" fill="#FFFFFF" fill-opacity="1.000000" fill-rule="evenodd"/>
	<path d="M3.7 17.82C5.56 14.59 10.67 18.5 10.67 18.5C10.67 18.5 5.5 8.36 10.81 8.36C16.12 8.36 15.54 13.58 15.15 16.92C14.69 20.81 12.14 22.57 9.91 22.96C5.93 23.68 2.3 20.25 3.7 17.82L3.7 17.82Z" fill="#0267FF" fill-opacity="1.000000" fill-rule="nonzero"/>
	<path d="M16.09 17.82C17.95 14.59 23.06 18.5 23.06 18.5C23.06 18.5 17.9 8.36 23.21 8.36C28.51 8.36 27.94 13.58 27.54 16.92C27.08 20.81 24.53 22.57 22.31 22.96C18.32 23.68 14.7 20.25 16.1 17.82L16.09 17.82Z" fill="#0267FF" fill-opacity="1.000000" fill-rule="nonzero"/>
</svg>
