<svg width="32.000000" height="32.000000" viewBox="0 0 32 32" fill="none" xmlns="http://www.w3.org/2000/svg" xmlns:xlink="http://www.w3.org/1999/xlink">
	<desc>
			Created with Pixso.
	</desc>
	<defs/>
	<rect rx="0.000000" width="30.666666" height="30.666666" transform="translate(0.666667 0.666667)" fill="#FFFFFF" fill-opacity="0"/>
	<path d="M32 16C32 24.83 24.83 32 16 32C7.16 32 0 24.83 0 16C0 7.16 7.16 0 16 0C24.83 0 32 7.16 32 16Z" fill="#FFFFFF" fill-opacity="1.000000" fill-rule="evenodd"/>
	<path d="M15.09 20C14.8 20.28 14.51 20.56 14.22 20.85C13.77 21.29 13.32 21.74 12.87 22.18C12.74 22.31 12.61 22.4 12.42 22.31C12.24 22.23 12.24 22.07 12.25 21.9C12.34 20.7 12.42 19.49 12.52 18.29C12.52 18.2 12.59 18.09 12.66 18.02C14.15 16.65 15.64 15.28 17.13 13.91C18.05 13.06 18.97 12.22 19.89 11.37C19.94 11.32 19.99 11.29 20.02 11.24C20.04 11.19 20.05 11.1 20.03 11.08C19.99 11.04 19.91 11.03 19.86 11.03C19.81 11.04 19.76 11.08 19.72 11.11C16.52 13.07 13.33 15.02 10.13 16.98C10 17.05 9.9 17.07 9.76 17.02C8.47 16.57 7.19 16.14 5.9 15.7C5.54 15.58 5.38 15.4 5.38 15.11C5.38 14.83 5.53 14.65 5.86 14.52C10.26 12.83 14.65 11.15 19.05 9.47C20.09 9.07 21.13 8.67 22.18 8.27C22.54 8.13 22.88 8.19 23.18 8.45C23.46 8.7 23.57 9.02 23.48 9.4C23.39 9.81 23.3 10.23 23.21 10.64C22.34 14.6 21.47 18.56 20.6 22.51C20.58 22.59 20.56 22.67 20.54 22.75C20.38 23.31 19.77 23.52 19.28 23.15C18.58 22.63 17.9 22.1 17.2 21.58C16.55 21.09 15.91 20.6 15.27 20.11C15.21 20.07 15.16 20.04 15.09 19.99L15.09 20Z" fill="#0267FF" fill-opacity="1.000000" fill-rule="nonzero"/>
</svg>
