<svg width="32.000000" height="32.000000" viewBox="0 0 32 32" fill="none" xmlns="http://www.w3.org/2000/svg" xmlns:xlink="http://www.w3.org/1999/xlink">
	<desc>
			Created with Pixso.
	</desc>
	<defs/>
	<rect rx="0.000000" width="30.666666" height="30.666666" transform="translate(0.666667 0.666667)" fill="#FFFFFF" fill-opacity="0"/>
	<path d="M32 16C32 24.83 24.83 32 16 32C7.16 32 0 24.83 0 16C0 7.16 7.16 0 16 0C24.83 0 32 7.16 32 16Z" fill="#FFFFFF" fill-opacity="1.000000" fill-rule="evenodd"/>
	<path d="M27.54 23.12C27.39 23.59 27.16 23.78 26.65 23.8C25.55 23.83 24.44 23.82 23.34 23.88C22.38 23.94 21.62 23.57 20.97 22.92C20.45 22.39 19.97 21.82 19.45 21.28C19.27 21.09 19.06 20.91 18.83 20.76C18.45 20.5 18.17 20.55 17.86 20.89C17.5 21.28 17.41 21.76 17.35 22.26C17.32 22.5 17.32 22.76 17.3 23C17.27 23.48 17.04 23.76 16.57 23.79C16.02 23.83 15.46 23.83 14.91 23.82C14.45 23.81 13.99 23.78 13.55 23.71C12.22 23.48 11.1 22.8 10.02 22.03C9.02 21.33 8.27 20.37 7.54 19.41C5.68 16.95 4.26 14.23 3.02 11.42C2.78 10.86 2.96 10.55 3.57 10.51C4.02 10.47 4.47 10.48 4.92 10.48C5.63 10.47 6.34 10.47 7.06 10.47C7.58 10.47 7.93 10.7 8.17 11.19C8.79 12.49 9.43 13.78 10.09 15.05C10.37 15.59 10.73 16.09 11.22 16.47C11.34 16.57 11.48 16.65 11.61 16.7C11.89 16.79 12.11 16.7 12.25 16.44C12.49 16.02 12.51 15.55 12.56 15.1C12.68 14.04 12.67 12.99 12.44 11.94C12.32 11.34 11.94 11.02 11.36 10.9C11.27 10.88 11.18 10.82 11.09 10.78C11.14 10.69 11.18 10.59 11.24 10.52C11.49 10.24 11.81 10.07 12.18 10.01C13.56 9.81 14.95 9.77 16.34 10C17.02 10.11 17.27 10.34 17.34 11.13C17.39 11.76 17.33 12.4 17.33 13.03C17.32 13.86 17.3 14.7 17.31 15.53C17.31 15.77 17.36 16.03 17.45 16.25C17.64 16.74 18.02 16.81 18.41 16.47C19.06 15.93 19.49 15.23 19.94 14.54C20.61 13.48 21.16 12.37 21.63 11.2C21.68 11.07 21.74 10.94 21.82 10.82C21.93 10.64 22.1 10.53 22.31 10.53C23.77 10.51 25.23 10.48 26.69 10.48C27.04 10.48 27.4 10.54 27.54 10.96L27.54 11.3C27.39 11.66 27.26 12.04 27.07 12.39C26.46 13.54 25.63 14.56 24.85 15.6C24.45 16.14 24.05 16.68 23.69 17.25C23.42 17.68 23.49 18.1 23.82 18.48C23.98 18.67 24.16 18.85 24.34 19.02C25 19.69 25.68 20.32 26.31 21.01C26.85 21.61 27.41 22.22 27.54 23.08L27.54 23.12L27.54 23.12Z" fill="#0267FF" fill-opacity="1.000000" fill-rule="nonzero"/>
</svg>
