<svg width="144.000000" height="144.000000" viewBox="0 0 144 144" fill="none" xmlns="http://www.w3.org/2000/svg" xmlns:xlink="http://www.w3.org/1999/xlink">
	<desc>
			Created with Pixso.
	</desc>
	<defs/>
	<path id="Vector" d="M92.8 3.04L101.62 6.33L98.97 13.42L96.74 12.59L98.76 7.22L94.38 5.58L92.37 10.95L90.15 10.12L92.8 3.03L92.8 3.04Z" fill="#000000" fill-opacity="1.000000" fill-rule="nonzero"/>
	<path id="Vector" d="M103.02 12.77L101.78 14.97L99.72 13.81L103.44 7.22L108.39 10.01C110.76 11.34 110.94 12.68 110.25 13.89L110.2 13.98C109.54 15.16 108.27 15.73 105.9 14.4L103.03 12.77L103.02 12.77ZM103.86 11.3L106.7 12.9C107.35 13.27 107.8 13.19 108.05 12.75L108.07 12.72C108.32 12.28 108.16 11.85 107.5 11.48L104.66 9.88L103.86 11.3Z" fill="#000000" fill-opacity="1.000000" fill-rule="nonzero"/>
	<path id="Vector" d="M113.5 21.05L109.85 18.27L108.46 18.95L106.54 17.5L114.18 13.79L116.63 15.65L115.26 24.13L113.23 22.58L113.5 21.05ZM114.4 16.01L111.56 17.41L113.84 19.15L114.4 16.01Z" fill="#000000" fill-opacity="1.000000" fill-rule="nonzero"/>
	<path id="Vector" d="M116.8 21.9L116.88 21.83L118.61 23.62C117.99 24.22 118.32 25.12 119.49 26.34C120.65 27.54 121.3 27.8 121.66 27.46L121.68 27.43C122.05 27.08 121.74 26.49 120.88 25.6L119.31 23.98L120.49 22.84L122.05 24.46C122.87 25.3 123.34 25.57 123.63 25.29L123.65 25.26C123.94 24.98 123.74 24.41 122.6 23.25C121.71 22.32 120.71 21.64 120.05 22.27L118.32 20.48L118.45 20.36C119.68 19.16 121.7 19.91 123.56 21.83L123.91 22.19C126.34 24.71 126.37 26.02 125.6 26.76L125.52 26.83C125.01 27.32 124.08 27.41 123 26.44C123.96 27.6 123.95 28.64 123.34 29.22L123.27 29.29C122.38 30.15 120.98 30.28 118.41 27.62L118.03 27.23C116.15 25.29 115.32 23.34 116.8 21.9L116.8 21.9Z" fill="#000000" fill-opacity="1.000000" fill-rule="nonzero"/>
	<path id="Vector" d="M128.73 27.7L133.41 34.41L128.69 37.69L129.39 38.69L126.84 40.46L125.55 38.6L126.59 37.87L123.01 32.73L121.96 33.46L120.67 31.6L123.22 29.83L123.77 30.62C124.63 30.49 126.05 29.57 128.73 27.7ZM127.34 35.75L130.54 33.51L128.42 30.47C127.14 31.36 125.77 32.21 124.99 32.37L127.34 35.75Z" fill="#000000" fill-opacity="1.000000" fill-rule="nonzero"/>
	<path id="Vector" d="M134.87 36.81L135.89 38.95L133.4 40.13L135.58 44.72L138.07 43.54L139.09 45.68L132.25 48.92L131.23 46.78L133.92 45.5L131.74 40.91L129.05 42.19L128.03 40.05L134.87 36.81Z" fill="#000000" fill-opacity="1.000000" fill-rule="nonzero"/>
	<path id="Vector" d="M139.37 55.5L133.17 51.99L132.53 49.71L139.81 47.64L140.45 49.92L135.63 51.29L141.84 54.8L142.48 57.08L135.2 59.14L134.56 56.86L139.36 55.5L139.37 55.5Z" fill="#000000" fill-opacity="1.000000" fill-rule="nonzero"/>
	<path id="Vector" d="M135.33 59.99L142.85 59.1L143.13 61.45L139.99 61.82L143.59 65.3L143.94 68.29L139.99 64.38L136.45 69.39L136.08 66.32L139.15 61.92L135.6 62.35L135.32 59.99L135.33 59.99Z" fill="#000000" fill-opacity="1.000000" fill-rule="nonzero"/>
	<path id="Vector" d="M136.44 72.52L144 73.09L143.82 75.46L140.67 75.22L143.52 79.32L143.3 82.33L140.17 77.72L135.73 81.96L135.96 78.88L139.83 75.16L136.26 74.89L136.44 72.52Z" fill="#000000" fill-opacity="1.000000" fill-rule="nonzero"/>
	<path id="Vector" d="M135.42 89.26L136.48 84.79L135.28 83.81L135.84 81.46L142.33 86.92L141.62 89.91L133.32 92.12L133.91 89.63L135.42 89.25L135.42 89.26ZM140.38 88.03L137.94 86.01L137.28 88.8L140.38 88.03Z" fill="#000000" fill-opacity="1.000000" fill-rule="nonzero"/>
	<path id="Vector" d="M133.74 91.57L135.74 97.07L140.55 94.88L139.3 97.63L135.27 99.38L137.95 100.6L136.96 102.76L134.29 101.54L135.62 105.73L134.37 108.47L132.86 103.41L127.4 105.52L128.68 102.71L133.14 101.01L130.08 99.62L131.06 97.46L134.12 98.85L132.46 94.38L133.74 91.57L133.74 91.57Z" fill="#000000" fill-opacity="1.000000" fill-rule="nonzero"/>
	<path id="Vector" d="M132.72 110.63L127.95 117.27L123.29 113.92L122.57 114.91L120.06 113.1L121.38 111.26L122.42 112.01L126.08 106.92L125.04 106.17L126.37 104.33L128.89 106.14L128.32 106.92C128.73 107.7 130.07 108.72 132.72 110.63ZM124.67 111.99L127.85 114.27L130.02 111.26C128.76 110.35 127.49 109.34 127.08 108.66L124.68 111.99L124.67 111.99Z" fill="#000000" fill-opacity="1.000000" fill-rule="nonzero"/>
	<path id="Vector" d="M112.13 122.57L113.84 120.93L119.09 126.39L117.38 128.03L112.13 122.57ZM116.16 122.43L116.09 122.36C115.11 121.34 114.83 119.98 117.1 117.8L120.93 114.13L126.18 119.59L124.47 121.23L122.86 119.55L120.73 121.59C118.48 123.76 117.13 123.44 116.16 122.43ZM118.33 118.99C117.49 119.8 117.56 120.31 117.9 120.67L117.92 120.7C118.28 121.06 118.77 121.12 119.61 120.32L121.69 118.33L120.41 117L118.33 118.99L118.33 118.99Z" fill="#000000" fill-opacity="1.000000" fill-rule="nonzero"/>
	<path id="Vector" d="M107.95 131.27L109.45 124.31L111.43 123.01L115.6 129.33L113.61 130.63L110.85 126.44L109.37 133.42L107.38 134.73L103.22 128.4L105.2 127.1L107.95 131.27ZM114.59 132.48L114.6 132.5L113.14 133.47C113.06 133.36 112.8 133.11 112.34 133.41C111.89 133.7 112.02 134.05 112.08 134.16L110.65 135.11L110.64 135.09C110.36 134.66 110.14 133.44 111.55 132.51L111.84 132.32C113.39 131.3 114.32 132.06 114.59 132.48L114.59 132.48Z" fill="#000000" fill-opacity="1.000000" fill-rule="nonzero"/>
	<path id="Vector" d="M101.65 137.58L94.01 140.53L91.94 135.17L90.8 135.62L89.68 132.72L91.79 131.9L92.25 133.09L98.11 130.83L97.65 129.64L99.76 128.82L100.89 131.72L99.98 132.06C99.91 132.94 100.47 134.53 101.65 137.58ZM94.15 134.32L95.56 137.97L99.03 136.62C98.47 135.17 97.96 133.63 97.99 132.83L94.15 134.31L94.15 134.32Z" fill="#000000" fill-opacity="1.000000" fill-rule="nonzero"/>
	<path id="Vector" d="M83.62 143.01L83.25 141.33L88.76 140.12L88.52 139.02L83.14 140.21L82.77 138.52L88.15 137.33L87.88 136.12L82.27 137.36L81.9 135.64L89.79 133.9L91.42 141.29L83.62 143.01Z" fill="#000000" fill-opacity="1.000000" fill-rule="nonzero"/>
	<path id="Vector" d="M81.73 143.34L79.36 143.5L79.18 140.75L74.1 141.09L74.28 143.84L71.91 144L71.41 136.44L73.78 136.28L73.98 139.26L79.06 138.92L78.86 135.95L81.23 135.79L81.73 143.34Z" fill="#000000" fill-opacity="1.000000" fill-rule="nonzero"/>
	<path id="Vector" d="M61.16 138.25L61.17 138.15C61.3 136.74 62.13 135.64 65.28 135.92L70.57 136.4L69.89 143.93L67.53 143.72L67.74 141.41L64.8 141.14C61.69 140.86 61.04 139.63 61.17 138.24L61.16 138.25ZM65.18 137.63C64.02 137.52 63.67 137.91 63.63 138.41L63.63 138.44C63.58 138.94 63.86 139.36 65.01 139.46L67.88 139.72L68.04 137.88L65.17 137.62L65.18 137.63Z" fill="#000000" fill-opacity="1.000000" fill-rule="nonzero"/>
	<path id="Vector" d="M52.45 141.3L43.57 138.16L46.1 131.02L48.33 131.81L46.42 137.22L50.82 138.78L52.74 133.37L54.97 134.16L52.44 141.3L52.45 141.3Z" fill="#000000" fill-opacity="1.000000" fill-rule="nonzero"/>
	<path id="Vector" d="M42.04 131.75L43.24 129.53L45.33 130.66L41.73 137.32L36.73 134.62C34.34 133.33 34.14 131.99 34.79 130.77L34.84 130.68C35.49 129.49 36.75 128.89 39.13 130.17L42.04 131.75ZM41.23 133.25L38.36 131.69C37.71 131.34 37.25 131.42 37.02 131.87L37 131.9C36.76 132.34 36.93 132.77 37.59 133.13L40.46 134.68L41.23 133.25L41.23 133.25Z" fill="#000000" fill-opacity="1.000000" fill-rule="nonzero"/>
	<path id="Vector" d="M31.43 123.68L35.14 126.4L36.5 125.68L38.45 127.11L30.89 130.95L28.41 129.13L29.62 120.63L31.68 122.15L31.44 123.68L31.43 123.68ZM30.63 128.73L33.44 127.27L31.12 125.58L30.63 128.73Z" fill="#000000" fill-opacity="1.000000" fill-rule="nonzero"/>
	<path id="Vector" d="M28.1 122.87L28.02 122.95L26.25 121.19C26.86 120.58 26.52 119.67 25.33 118.48C24.15 117.3 23.49 117.05 23.14 117.41L23.12 117.43C22.76 117.79 23.08 118.37 23.96 119.25L25.55 120.84L24.4 121.99L22.81 120.41C21.97 119.58 21.49 119.33 21.21 119.61L21.18 119.63C20.9 119.92 21.12 120.48 22.27 121.63C23.18 122.55 24.19 123.21 24.84 122.56L26.61 124.32L26.48 124.45C25.26 125.66 23.24 124.95 21.34 123.06L20.98 122.7C18.5 120.23 18.46 118.92 19.21 118.17L19.29 118.09C19.79 117.59 20.73 117.49 21.82 118.44C20.83 117.3 20.83 116.26 21.43 115.66L21.5 115.59C22.38 114.71 23.77 114.56 26.39 117.17L26.78 117.56C28.7 119.47 29.56 121.4 28.09 122.87L28.1 122.87Z" fill="#000000" fill-opacity="1.000000" fill-rule="nonzero"/>
	<path id="Vector" d="M16.07 117.3L11.28 110.67L15.93 107.31L15.21 106.32L17.72 104.5L19.06 106.34L18.03 107.08L21.7 112.16L22.73 111.41L24.06 113.25L21.55 115.07L20.99 114.29C20.13 114.43 18.72 115.38 16.08 117.29L16.07 117.3ZM17.32 109.23L14.15 111.52L16.33 114.52C17.59 113.61 18.95 112.73 19.72 112.56L17.32 109.23Z" fill="#000000" fill-opacity="1.000000" fill-rule="nonzero"/>
	<path id="Vector" d="M9.77 108.3L8.72 106.18L11.19 104.95L8.93 100.4L6.46 101.63L5.4 99.5L12.19 96.14L13.24 98.26L10.57 99.59L12.83 104.15L15.5 102.82L16.55 104.94L9.77 108.31L9.77 108.3Z" fill="#000000" fill-opacity="1.000000" fill-rule="nonzero"/>
	<path id="Vector" d="M4.93 89.68L11.19 93.1L11.88 95.37L4.63 97.56L3.94 95.3L8.75 93.84L2.47 90.43L1.78 88.17L9.03 85.97L9.71 88.24L4.93 89.69L4.93 89.68Z" fill="#000000" fill-opacity="1.000000" fill-rule="nonzero"/>
	<path id="Vector" d="M8.89 85.13L1.39 86.16L1.07 83.81L4.19 83.38L0.54 79.97L0.13 76.99L4.15 80.83L7.6 75.75L8.02 78.82L5.03 83.27L8.56 82.78L8.88 85.13L8.89 85.13Z" fill="#000000" fill-opacity="1.000000" fill-rule="nonzero"/>
	<path id="Vector" d="M7.56 72.61L0 72.18L0.13 69.81L3.28 69.99L0.35 65.95L0.52 62.94L3.73 67.48L8.09 63.16L7.92 66.25L4.12 70.04L7.69 70.24L7.56 72.61Z" fill="#000000" fill-opacity="1.000000" fill-rule="nonzero"/>
	<path id="Vector" d="M8.27 55.88L7.3 60.36L8.51 61.32L8 63.67L1.41 58.33L2.06 55.32L10.32 52.97L9.78 55.46L8.27 55.86L8.27 55.88ZM3.33 57.2L5.81 59.17L6.42 56.37L3.33 57.2Z" fill="#000000" fill-opacity="1.000000" fill-rule="nonzero"/>
	<path id="Vector" d="M9.92 53.51L7.82 48.04L3.05 50.31L4.25 47.55L8.25 45.72L5.55 44.55L6.49 42.38L9.19 43.55L7.79 39.39L8.99 36.62L10.59 41.65L16.01 39.45L14.78 42.29L10.35 44.06L13.44 45.4L12.49 47.57L9.41 46.24L11.14 50.68L9.91 53.51L9.92 53.51Z" fill="#000000" fill-opacity="1.000000" fill-rule="nonzero"/>
	<path id="Vector" d="M10.58 34.44L15.24 27.71L19.96 30.98L20.66 29.97L23.21 31.74L21.92 33.61L20.88 32.88L17.3 38.03L18.35 38.76L17.06 40.62L14.51 38.86L15.06 38.06C14.63 37.3 13.27 36.29 10.59 34.43L10.58 34.44ZM18.61 32.93L15.4 30.7L13.28 33.75C14.56 34.64 15.84 35.62 16.27 36.3L18.61 32.93Z" fill="#000000" fill-opacity="1.000000" fill-rule="nonzero"/>
	<path id="Vector" d="M26.94 22.34L27.01 22.41C28.01 23.41 28.31 24.76 26.08 26.99L22.31 30.73L16.97 25.37L18.65 23.69L20.28 25.34L22.38 23.26C24.59 21.05 25.94 21.34 26.94 22.34L26.94 22.34ZM24.82 25.82C25.64 25 25.57 24.48 25.23 24.13L25.2 24.11C24.84 23.75 24.35 23.69 23.52 24.51L21.48 26.54L22.78 27.85L24.82 25.82L24.82 25.82ZM30.96 22.13L29.28 23.8L23.94 18.44L25.62 16.76L30.96 22.13Z" fill="#000000" fill-opacity="1.000000" fill-rule="nonzero"/>
	<path id="Vector" d="M34.97 13.37L33.61 20.36L31.65 21.69L27.37 15.45L29.33 14.11L32.16 18.25L33.52 11.25L35.47 9.91L39.76 16.15L37.8 17.49L34.98 13.37L34.97 13.37ZM28.32 12.27L28.31 12.26L29.75 11.27C29.83 11.37 30.09 11.62 30.55 11.31C31 11.01 30.86 10.66 30.8 10.55L32.21 9.58L32.22 9.6C32.51 10.02 32.75 11.23 31.36 12.19L31.07 12.39C29.54 13.43 28.61 12.69 28.32 12.27Z" fill="#000000" fill-opacity="1.000000" fill-rule="nonzero"/>
	<path id="Vector" d="M41.16 6.95L48.74 3.86L50.91 9.18L52.04 8.72L53.21 11.59L51.11 12.44L50.63 11.26L44.83 13.63L45.31 14.81L43.21 15.66L42.03 12.79L42.93 12.43C42.99 11.55 42.4 9.97 41.17 6.95L41.16 6.95ZM48.71 10.07L47.23 6.45L43.8 7.86C44.38 9.3 44.92 10.83 44.9 11.62L48.71 10.07Z" fill="#000000" fill-opacity="1.000000" fill-rule="nonzero"/>
	<path id="Vector" d="M59.08 1.18L59.48 2.86L54 4.17L54.26 5.26L59.61 3.97L60.01 5.65L54.66 6.94L54.95 8.15L60.54 6.8L60.95 8.51L53.09 10.4L51.32 3.04L59.08 1.18L59.08 1.18Z" fill="#000000" fill-opacity="1.000000" fill-rule="nonzero"/>
	<path id="Vector" d="M60.98 0.81L63.34 0.62L63.57 3.37L68.65 2.94L68.41 0.19L70.77 0L71.41 7.54L69.05 7.74L68.8 4.77L63.73 5.19L63.98 8.16L61.61 8.36L60.98 0.81Z" fill="#000000" fill-opacity="1.000000" fill-rule="nonzero"/>
	<path id="Vector" d="M81.63 5.54L81.63 5.64C81.52 7.05 80.71 8.16 77.56 7.94L72.26 7.57L72.8 0.01L75.17 0.18L75 2.5L77.95 2.7C81.06 2.93 81.73 4.14 81.63 5.54ZM77.63 6.23C78.78 6.32 79.13 5.93 79.16 5.43L79.16 5.4C79.2 4.89 78.91 4.48 77.75 4.4L74.88 4.19L74.75 6.03L77.62 6.23L77.63 6.23Z" fill="#000000" fill-opacity="1.000000" fill-rule="nonzero"/>
</svg>
