<svg width="72.000000" height="64.000000" viewBox="0 0 72 64" fill="none"
	xmlns="http://www.w3.org/2000/svg" xmlns:xlink="http://www.w3.org/1999/xlink">
	<desc>
		Created with Pixso.
	</desc>
	<defs />
	<path
		d="M72 32.09C72 28.6 68.71 25.9 64.04 25.9C61.75 25.9 58.07 26.8 52.9 28.5C47.73 30.2 42.96 31.1 38.68 31.1L37.39 31.1C40.17 26.7 42.46 23.7 44.05 22.3C47.33 19.4 56.68 11.8 56.68 5.9C56.68 2.4 54.19 0 51.21 0C49.52 0 48.03 0.7 46.54 2.09C43.65 4.9 42.26 11.1 40.67 18.4C39.87 22.1 38.38 26 36 30.3C33.61 25.9 32.02 21.9 31.22 18.1C30.43 14.4 29.63 11.1 28.74 8.29C26.85 2.5 23.96 0 20.58 0C17.5 0 15.31 2.4 15.31 5.59C15.31 7.59 15.91 9.5 17.2 11.4C18.39 13.2 21.58 16.5 26.75 21.2C31.42 26.1 31.02 25.4 34.6 31.1C29.83 31.1 24.76 30.2 19.49 28.4C14.22 26.6 10.34 25.7 7.95 25.7C3.18 25.7 0 28.4 0 31.9C0 35.5 3.38 38.09 7.95 38.09C11.43 38.09 18.89 35.59 23.66 34C26.05 33.2 29.33 32.9 33.31 32.9L34.6 32.9C32.22 36.9 29.73 40 27.24 42.2C22.27 46.6 15.31 52.8 15.31 58.1C15.31 61.6 17.6 64 20.58 64C22.27 64 23.86 63.3 25.35 62C28.34 59.4 29.63 53.4 31.22 45.9C32.02 42.1 33.61 38 36 33.7C38.38 37.9 39.97 41.9 40.67 45.5C41.37 49.2 42.26 52.5 43.06 55.4C44.65 61.3 47.93 64 51.21 64C54.19 64 56.68 61.4 56.68 58.2C56.68 53 51.21 48.1 45.64 43.1C42.86 40.59 40.07 37.3 37.39 32.9C42.56 32.9 47.53 33.8 52.7 35.59C57.77 37.4 61.55 38.3 64.04 38.3C68.51 38.3 72 35.8 72 32.09Z"
		fill="#000000" fill-opacity="1.000000" fill-rule="nonzero" />
</svg>