<svg width="72.000000" height="1664.000000" viewBox="0 0 72 1664" fill="none" xmlns="http://www.w3.org/2000/svg" xmlns:xlink="http://www.w3.org/1999/xlink">
	<desc>
			Created with Pixso.
	</desc>
	<defs>
		<clipPath id="clip7702_12884">
			<rect id="vertical" rx="0.000000" width="71.000000" height="1663.000000" transform="translate(0.500000 0.500000)" fill="white" fill-opacity="0"/>
		</clipPath>
	</defs>
	<g clip-path="url(#clip7702_12884)">
		<path id="✽" d="M72 2462.61C72 2459.11 68.71 2456.4 64.04 2456.4C61.75 2456.4 58.07 2457.31 52.9 2459.01C47.73 2460.71 42.96 2461.61 38.68 2461.61L37.39 2461.61C40.17 2457.21 42.46 2454.21 44.05 2452.81C47.33 2449.9 56.68 2442.31 56.68 2436.4C56.68 2432.9 54.19 2430.51 51.21 2430.51C49.52 2430.51 48.03 2431.21 46.54 2432.61C43.65 2435.4 42.26 2441.61 40.67 2448.9C39.87 2452.61 38.38 2456.51 36 2460.81C33.61 2456.4 32.02 2452.4 31.22 2448.61C30.43 2444.9 29.63 2441.61 28.74 2438.81C26.85 2433.01 23.96 2430.51 20.58 2430.51C17.5 2430.51 15.31 2432.9 15.31 2436.11C15.31 2438.11 15.91 2440.01 17.2 2441.9C18.39 2443.71 21.58 2447.01 26.75 2451.71C31.42 2456.61 31.02 2455.9 34.6 2461.61C29.83 2461.61 24.76 2460.71 19.49 2458.9C14.22 2457.11 10.34 2456.21 7.95 2456.21C3.18 2456.21 0 2458.9 0 2462.4C0 2466.01 3.38 2468.61 7.95 2468.61C11.43 2468.61 18.89 2466.11 23.66 2464.51C26.05 2463.71 29.33 2463.4 33.31 2463.4L34.6 2463.4C32.22 2467.4 29.73 2470.51 27.24 2472.71C22.27 2477.11 15.31 2483.31 15.31 2488.61C15.31 2492.11 17.6 2494.51 20.58 2494.51C22.27 2494.51 23.86 2493.81 25.35 2492.51C28.34 2489.9 29.63 2483.9 31.22 2476.4C32.02 2472.61 33.61 2468.51 36 2464.21C38.38 2468.4 39.97 2472.4 40.67 2476.01C41.37 2479.71 42.26 2483.01 43.06 2485.9C44.65 2491.81 47.93 2494.51 51.21 2494.51C54.19 2494.51 56.68 2491.9 56.68 2488.71C56.68 2483.51 51.21 2478.61 45.64 2473.61C42.86 2471.11 40.07 2467.81 37.39 2463.4C42.56 2463.4 47.53 2464.31 52.7 2466.11C57.77 2467.9 61.55 2468.81 64.04 2468.81C68.51 2468.81 72 2466.31 72 2462.61Z" fill="#000000" fill-opacity="1.000000" fill-rule="nonzero"/>
		<path id="birthday" d="M5 2388.07L67.49 2388.07L67.49 2372.45C67.49 2365.31 62.7 2362.37 56.07 2362.37L42.54 2362.37C36.33 2362.37 34.23 2365.31 33.39 2367.83C32.46 2365.38 29.94 2363.12 24.74 2363.12L15.16 2363.12C9.11 2363.12 5 2365.22 5 2373.12L5 2388.07ZM67.49 2349.95L5 2349.95L5 2359.44L67.49 2359.44L67.49 2349.95ZM67.49 2336.9L39.6 2336.9L39.6 2334.47C39.6 2331.45 40.78 2330.94 43.55 2330.94L62.37 2330.94C65.73 2330.94 66.82 2330.44 67.49 2330.02L67.49 2320.61L67.07 2320.61C66.15 2321.03 64.97 2321.53 62.45 2321.53L40.53 2321.53C36.33 2321.53 34.65 2323.55 33.72 2325.64C32.97 2323.97 30.95 2321.53 25.74 2321.53L14.66 2321.53C7.68 2321.53 5 2324.73 5 2331.03L5 2346.39L67.49 2346.39L67.49 2336.9ZM14.07 2311.87L67.49 2311.87L67.49 2302.46L14.07 2302.46L14.07 2294.48L5 2294.48L5 2319.85L14.07 2319.85L14.07 2311.87ZM5 2292.09L67.49 2292.09L67.49 2282.6L40.02 2282.6L40.02 2276.12L67.49 2276.12L67.49 2266.63L5 2266.63L5 2276.12L30.03 2276.12L30.03 2282.6L5 2282.6L5 2292.09ZM5 2263.13L67.49 2263.13L67.49 2248.6C67.49 2240.79 62.7 2237.94 55.06 2237.94L17.01 2237.94C9.62 2237.94 5 2240.46 5 2248.6L5 2263.13ZM55.73 2220.37L67.49 2219.12L67.49 2209.97L5 2218.11L5 2229.37L67.49 2237.01L67.49 2228.53L55.73 2227.27L55.73 2220.37ZM41.45 2205.48L67.49 2205.48L67.49 2195.99L41.54 2195.99L5 2187.68L5 2196.24L28.26 2200.44L5 2204.81L5 2214.05L41.45 2205.48ZM13.48 2378.58L13.48 2375.72C13.48 2373.12 14.91 2372.45 17.43 2372.45L25.32 2372.45C27.93 2372.45 29.69 2373.2 29.69 2375.72L29.69 2378.58L13.48 2378.58ZM30.7 2336.9L13.48 2336.9L13.48 2334.38C13.48 2331.53 14.82 2330.94 17.51 2330.94L26.25 2330.94C29.02 2330.94 30.7 2331.78 30.7 2334.38L30.7 2336.9ZM58.42 2253.63L13.48 2253.63L13.48 2250.96C13.48 2248.6 14.74 2247.68 18.35 2247.68L53.55 2247.68C56.91 2247.68 58.42 2248.52 58.42 2251.37L58.42 2253.63ZM23.31 2223.9L46.41 2221.38L46.41 2226.35L23.31 2223.9ZM39.02 2378.58L39.02 2375.72C39.02 2372.7 40.44 2372.03 43.05 2372.03L54.47 2372.03C57.24 2372.03 58.67 2372.7 58.67 2375.72L58.67 2378.58L39.02 2378.58Z" fill="#000000" fill-opacity="1.000000" fill-rule="evenodd"/>
		<path id="birthday" d="M67.49 2388.07L5 2388.07L5 2373.12C5 2365.22 9.11 2363.12 15.16 2363.12L24.74 2363.12C29.94 2363.12 32.46 2365.38 33.39 2367.83C34.23 2365.31 36.33 2362.37 42.54 2362.37L56.07 2362.37C62.7 2362.37 67.49 2365.31 67.49 2372.45L67.49 2388.07ZM13.48 2375.72L13.48 2378.58L29.69 2378.58L29.69 2375.72C29.69 2373.2 27.93 2372.45 25.32 2372.45L17.43 2372.45C14.91 2372.45 13.48 2373.12 13.48 2375.72ZM39.02 2375.72L39.02 2378.58L58.67 2378.58L58.67 2375.72C58.67 2372.7 57.24 2372.03 54.47 2372.03L43.05 2372.03C40.44 2372.03 39.02 2372.7 39.02 2375.72ZM5 2349.95L67.49 2349.95L67.49 2359.44L5 2359.44L5 2349.95ZM13.48 2336.9L30.7 2336.9L30.7 2334.38C30.7 2331.78 29.02 2330.94 26.25 2330.94L17.51 2330.94C14.82 2330.94 13.48 2331.53 13.48 2334.38L13.48 2336.9ZM39.6 2336.9L67.49 2336.9L67.49 2346.39L5 2346.39L5 2331.03C5 2324.73 7.68 2321.53 14.66 2321.53L25.74 2321.53C30.95 2321.53 32.97 2323.97 33.72 2325.64C34.65 2323.55 36.33 2321.53 40.53 2321.53L62.45 2321.53C64.97 2321.53 66.15 2321.03 67.07 2320.61L67.49 2320.61L67.49 2330.02C66.82 2330.44 65.73 2330.94 62.37 2330.94L43.55 2330.94C40.78 2330.94 39.6 2331.45 39.6 2334.47L39.6 2336.9ZM67.49 2311.87L14.07 2311.87L14.07 2319.85L5 2319.85L5 2294.48L14.07 2294.48L14.07 2302.46L67.49 2302.46L67.49 2311.87ZM67.49 2292.09L5 2292.09L5 2282.6L30.03 2282.6L30.03 2276.12L5 2276.12L5 2266.63L67.49 2266.63L67.49 2276.12L40.02 2276.12L40.02 2282.6L67.49 2282.6L67.49 2292.09ZM67.49 2263.13L5 2263.13L5 2248.6C5 2240.46 9.62 2237.94 17.01 2237.94L55.06 2237.94C62.7 2237.94 67.49 2240.79 67.49 2248.6L67.49 2263.13ZM13.48 2253.63L58.42 2253.63L58.42 2251.37C58.42 2248.52 56.91 2247.68 53.55 2247.68L18.35 2247.68C14.74 2247.68 13.48 2248.6 13.48 2250.96L13.48 2253.63ZM46.41 2221.38L23.31 2223.9L46.41 2226.35L46.41 2221.38ZM67.49 2219.12L55.73 2220.37L55.73 2227.27L67.49 2228.53L67.49 2237.01L5 2229.37L5 2218.11L67.49 2209.97L67.49 2219.12ZM67.49 2205.48L41.45 2205.48L5 2214.05L5 2204.81L28.26 2200.44L5 2196.24L5 2187.68L41.54 2195.99L67.49 2195.99L67.49 2205.48Z" stroke="#000000" stroke-opacity="1.000000" stroke-width="1.271234"/>
		<path id="✽" d="M72 2115.25C72 2111.75 68.71 2109.05 64.04 2109.05C61.75 2109.05 58.07 2109.95 52.9 2111.64C47.73 2113.35 42.96 2114.25 38.68 2114.25L37.39 2114.25C40.17 2109.85 42.46 2106.85 44.05 2105.45C47.33 2102.55 56.68 2094.95 56.68 2089.05C56.68 2085.55 54.19 2083.14 51.21 2083.14C49.52 2083.14 48.03 2083.85 46.54 2085.25C43.65 2088.05 42.26 2094.25 40.67 2101.55C39.87 2105.25 38.38 2109.14 36 2113.45C33.61 2109.05 32.02 2105.05 31.22 2101.25C30.43 2097.55 29.63 2094.25 28.74 2091.45C26.85 2085.64 23.96 2083.14 20.58 2083.14C17.5 2083.14 15.31 2085.55 15.31 2088.75C15.31 2090.75 15.91 2092.64 17.2 2094.55C18.39 2096.35 21.58 2099.64 26.75 2104.35C31.42 2109.25 31.02 2108.55 34.6 2114.25C29.83 2114.25 24.76 2113.35 19.49 2111.55C14.22 2109.75 10.34 2108.85 7.95 2108.85C3.18 2108.85 0 2111.55 0 2115.05C0 2118.64 3.38 2121.25 7.95 2121.25C11.43 2121.25 18.89 2118.75 23.66 2117.14C26.05 2116.35 29.33 2116.05 33.31 2116.05L34.6 2116.05C32.22 2120.05 29.73 2123.14 27.24 2125.35C22.27 2129.75 15.31 2135.95 15.31 2141.25C15.31 2144.75 17.6 2147.14 20.58 2147.14C22.27 2147.14 23.86 2146.45 25.35 2145.14C28.34 2142.55 29.63 2136.55 31.22 2129.05C32.02 2125.25 33.61 2121.14 36 2116.85C38.38 2121.05 39.97 2125.05 40.67 2128.64C41.37 2132.35 42.26 2135.64 43.06 2138.55C44.65 2144.45 47.93 2147.14 51.21 2147.14C54.19 2147.14 56.68 2144.55 56.68 2141.35C56.68 2136.14 51.21 2131.25 45.64 2126.25C42.86 2123.75 40.07 2120.45 37.39 2116.05C42.56 2116.05 47.53 2116.95 52.7 2118.75C57.77 2120.55 61.55 2121.45 64.04 2121.45C68.51 2121.45 72 2118.95 72 2115.25Z" fill="#000000" fill-opacity="1.000000" fill-rule="nonzero"/>
		<path id="celebrate" d="M54.81 2025.17C57.33 2025.17 59.01 2026.01 59.01 2028.28C59.01 2030.38 57.5 2031.3 54.72 2031.3L17.6 2031.3C14.82 2031.3 13.48 2030.71 13.48 2028.36C13.48 2026.01 14.91 2025.17 17.6 2025.17L28.6 2025.17L28.6 2015.85L17.43 2015.85C11.3 2015.85 4.41 2017.02 4.41 2027.44L4.41 2029.62C4.41 2038.19 10.54 2040.96 16.92 2040.96L55.06 2040.96C61.36 2040.96 68.25 2038.86 68.25 2029.29L68.25 2027.19C68.25 2018.03 61.44 2015.85 54.72 2015.85L40.28 2015.85L40.28 2025.17L54.81 2025.17ZM5 1991.23L5 2012.82L67.49 2012.82L67.49 1990.73L58 1990.73L58 2003.33L39.94 2003.33L39.94 1993.84L30.45 1993.84L30.45 2003.33L14.07 2003.33L14.07 1991.23L5 1991.23ZM5 1978.8L5 1988.29L67.49 1988.29L67.49 1967.21L57.83 1967.21L57.83 1978.8L5 1978.8ZM5 1943.16L5 1964.75L67.49 1964.75L67.49 1942.66L58 1942.66L58 1955.26L39.94 1955.26L39.94 1945.77L30.45 1945.77L30.45 1955.26L14.07 1955.26L14.07 1943.16L5 1943.16ZM5 1940.22L67.49 1940.22L67.49 1924.6C67.49 1917.46 62.7 1914.52 56.07 1914.52L42.54 1914.52C36.33 1914.52 34.23 1917.46 33.39 1919.98C32.46 1917.54 29.94 1915.27 24.74 1915.27L15.16 1915.27C9.11 1915.27 5 1917.37 5 1925.27L5 1940.22ZM67.49 1902.1L39.6 1902.1L39.6 1899.66C39.6 1896.64 40.78 1896.14 43.55 1896.14L62.37 1896.14C65.73 1896.14 66.82 1895.63 67.49 1895.21L67.49 1885.8L67.07 1885.8C66.15 1886.22 64.97 1886.73 62.45 1886.73L40.53 1886.73C36.33 1886.73 34.65 1888.74 33.72 1890.84C32.97 1889.16 30.95 1886.73 25.74 1886.73L14.66 1886.73C7.68 1886.73 5 1889.92 5 1896.22L5 1911.59L67.49 1911.59L67.49 1902.1ZM55.73 1868.59L67.49 1867.33L67.49 1858.18L5 1866.33L5 1877.58L67.49 1885.23L67.49 1876.74L55.73 1875.48L55.73 1868.59ZM14.07 1853.77L67.49 1853.77L67.49 1844.36L14.07 1844.36L14.07 1836.38L5 1836.38L5 1861.75L14.07 1861.75L14.07 1853.77ZM5 1812.4L5 1833.99L67.49 1833.99L67.49 1811.9L58 1811.9L58 1824.5L39.94 1824.5L39.94 1815.01L30.45 1815.01L30.45 1824.5L14.07 1824.5L14.07 1812.4L5 1812.4ZM13.48 1930.73L13.48 1927.87C13.48 1925.27 14.91 1924.6 17.43 1924.6L25.32 1924.6C27.93 1924.6 29.69 1925.35 29.69 1927.87L29.69 1930.73L13.48 1930.73ZM30.7 1902.1L13.48 1902.1L13.48 1899.58C13.48 1896.72 14.82 1896.14 17.51 1896.14L26.25 1896.14C29.02 1896.14 30.7 1896.98 30.7 1899.58L30.7 1902.1ZM23.31 1872.12L46.41 1869.6L46.41 1874.56L23.31 1872.12ZM39.02 1930.73L39.02 1927.87C39.02 1924.85 40.44 1924.18 43.05 1924.18L54.47 1924.18C57.24 1924.18 58.67 1924.85 58.67 1927.87L58.67 1930.73L39.02 1930.73Z" fill="#000000" fill-opacity="1.000000" fill-rule="evenodd"/>
		<path id="celebrate" d="M59.01 2028.28C59.01 2026.01 57.33 2025.17 54.81 2025.17L40.28 2025.17L40.28 2015.85L54.72 2015.85C61.44 2015.85 68.25 2018.03 68.25 2027.19L68.25 2029.29C68.25 2038.86 61.36 2040.96 55.06 2040.96L16.92 2040.96C10.54 2040.96 4.41 2038.19 4.41 2029.62L4.41 2027.44C4.41 2017.02 11.3 2015.85 17.43 2015.85L28.6 2015.85L28.6 2025.17L17.6 2025.17C14.91 2025.17 13.48 2026.01 13.48 2028.36C13.48 2030.71 14.82 2031.3 17.6 2031.3L54.72 2031.3C57.5 2031.3 59.01 2030.38 59.01 2028.28ZM5 2012.82L5 1991.23L14.07 1991.23L14.07 2003.33L30.45 2003.33L30.45 1993.84L39.94 1993.84L39.94 2003.33L58 2003.33L58 1990.73L67.49 1990.73L67.49 2012.82L5 2012.82ZM5 1988.29L5 1978.8L57.83 1978.8L57.83 1967.21L67.49 1967.21L67.49 1988.29L5 1988.29ZM5 1964.75L5 1943.16L14.07 1943.16L14.07 1955.26L30.45 1955.26L30.45 1945.77L39.94 1945.77L39.94 1955.26L58 1955.26L58 1942.66L67.49 1942.66L67.49 1964.75L5 1964.75ZM67.49 1940.22L5 1940.22L5 1925.27C5 1917.37 9.11 1915.27 15.16 1915.27L24.74 1915.27C29.94 1915.27 32.46 1917.54 33.39 1919.98C34.23 1917.46 36.33 1914.52 42.54 1914.52L56.07 1914.52C62.7 1914.52 67.49 1917.46 67.49 1924.6L67.49 1940.22ZM13.48 1927.87L13.48 1930.73L29.69 1930.73L29.69 1927.87C29.69 1925.35 27.93 1924.6 25.32 1924.6L17.43 1924.6C14.91 1924.6 13.48 1925.27 13.48 1927.87ZM39.02 1927.87L39.02 1930.73L58.67 1930.73L58.67 1927.87C58.67 1924.85 57.24 1924.18 54.47 1924.18L43.05 1924.18C40.44 1924.18 39.02 1924.85 39.02 1927.87ZM13.48 1902.1L30.7 1902.1L30.7 1899.58C30.7 1896.98 29.02 1896.14 26.25 1896.14L17.51 1896.14C14.82 1896.14 13.48 1896.72 13.48 1899.58L13.48 1902.1ZM39.6 1902.1L67.49 1902.1L67.49 1911.59L5 1911.59L5 1896.22C5 1889.92 7.68 1886.73 14.66 1886.73L25.74 1886.73C30.95 1886.73 32.97 1889.16 33.72 1890.84C34.65 1888.74 36.33 1886.73 40.53 1886.73L62.45 1886.73C64.97 1886.73 66.15 1886.22 67.07 1885.8L67.49 1885.8L67.49 1895.21C66.82 1895.63 65.73 1896.14 62.37 1896.14L43.55 1896.14C40.78 1896.14 39.6 1896.64 39.6 1899.66L39.6 1902.1ZM46.41 1869.6L23.31 1872.12L46.41 1874.56L46.41 1869.6ZM67.49 1867.33L55.73 1868.59L55.73 1875.48L67.49 1876.74L67.49 1885.23L5 1877.58L5 1866.33L67.49 1858.18L67.49 1867.33ZM67.49 1853.77L14.07 1853.77L14.07 1861.75L5 1861.75L5 1836.38L14.07 1836.38L14.07 1844.36L67.49 1844.36L67.49 1853.77ZM5 1833.99L5 1812.4L14.07 1812.4L14.07 1824.5L30.45 1824.5L30.45 1815.01L39.94 1815.01L39.94 1824.5L58 1824.5L58 1811.9L67.49 1811.9L67.49 1833.99L5 1833.99Z" stroke="#000000" stroke-opacity="1.000000" stroke-width="1.271234"/>
		<path id="✽" d="M72 1737.9C72 1734.4 68.71 1731.69 64.04 1731.69C61.75 1731.69 58.07 1732.59 52.9 1734.29C47.73 1735.99 42.96 1736.9 38.68 1736.9L37.39 1736.9C40.17 1732.49 42.46 1729.49 44.05 1728.09C47.33 1725.19 56.68 1717.59 56.68 1711.69C56.68 1708.19 54.19 1705.79 51.21 1705.79C49.52 1705.79 48.03 1706.49 46.54 1707.9C43.65 1710.69 42.26 1716.9 40.67 1724.19C39.87 1727.9 38.38 1731.79 36 1736.09C33.61 1731.69 32.02 1727.69 31.22 1723.9C30.43 1720.19 29.63 1716.9 28.74 1714.09C26.85 1708.29 23.96 1705.79 20.58 1705.79C17.5 1705.79 15.31 1708.19 15.31 1711.4C15.31 1713.4 15.91 1715.29 17.2 1717.19C18.39 1718.99 21.58 1722.29 26.75 1726.99C31.42 1731.9 31.02 1731.19 34.6 1736.9C29.83 1736.9 24.76 1735.99 19.49 1734.19C14.22 1732.4 10.34 1731.49 7.95 1731.49C3.18 1731.49 0 1734.19 0 1737.69C0 1741.29 3.38 1743.9 7.95 1743.9C11.43 1743.9 18.89 1741.4 23.66 1739.79C26.05 1738.99 29.33 1738.69 33.31 1738.69L34.6 1738.69C32.22 1742.69 29.73 1745.79 27.24 1747.99C22.27 1752.4 15.31 1758.59 15.31 1763.9C15.31 1767.4 17.6 1769.79 20.58 1769.79C22.27 1769.79 23.86 1769.09 25.35 1767.79C28.34 1765.19 29.63 1759.19 31.22 1751.69C32.02 1747.9 33.61 1743.79 36 1739.49C38.38 1743.69 39.97 1747.69 40.67 1751.29C41.37 1754.99 42.26 1758.29 43.06 1761.19C44.65 1767.09 47.93 1769.79 51.21 1769.79C54.19 1769.79 56.68 1767.19 56.68 1763.99C56.68 1758.79 51.21 1753.9 45.64 1748.9C42.86 1746.4 40.07 1743.09 37.39 1738.69C42.56 1738.69 47.53 1739.59 52.7 1741.4C57.77 1743.19 61.55 1744.09 64.04 1744.09C68.51 1744.09 72 1741.59 72 1737.9Z" fill="#000000" fill-opacity="1.000000" fill-rule="nonzero"/>
		<path id="quests" d="M68.08 1653.52L80.51 1653.52L80.51 1642.18L68 1646.55C66.74 1639.92 61.19 1637.65 53.55 1637.65L18.69 1637.65C10.12 1637.65 4.41 1640.59 4.41 1649.83L4.41 1651.42C4.41 1660.33 10.12 1663.6 18.77 1663.6L53.55 1663.6C61.53 1663.6 67.24 1660.92 68.08 1653.52ZM56.32 1581.99C64.05 1581.99 68.16 1577.96 68.16 1570.4L68.16 1568.55C68.16 1560.24 62.7 1556.29 53.55 1556.29L51.53 1556.29C44.48 1556.29 41.28 1557.63 35.74 1561.92L27.93 1567.97C23.81 1571.16 21.88 1571.83 18.35 1571.83L17.18 1571.83C14.24 1571.83 12.81 1571.33 12.81 1569.06C12.81 1566.79 14.4 1566.37 16.5 1566.37L25.49 1566.37L25.49 1557.21L15.24 1557.21C7.85 1557.21 4.41 1560.24 4.41 1568.05L4.41 1569.81C4.41 1577.29 8.27 1581.49 16.59 1581.49L18.6 1581.49C24.82 1581.49 28.85 1580.31 34.06 1576.28L41.79 1570.23C46.24 1566.79 47.84 1566.37 52.29 1566.37L53.72 1566.37C57.58 1566.37 59.09 1567.21 59.09 1569.48C59.09 1571.66 57.58 1572.59 54.72 1572.59L43.8 1572.59L43.8 1581.99L56.32 1581.99ZM56.32 1528.76C64.05 1528.76 68.16 1524.72 68.16 1517.16L68.16 1515.32C68.16 1507 62.7 1503.05 53.55 1503.05L51.53 1503.05C44.48 1503.05 41.28 1504.4 35.74 1508.68L27.93 1514.73C23.81 1517.92 21.88 1518.59 18.35 1518.59L17.18 1518.59C14.24 1518.59 12.81 1518.09 12.81 1515.82C12.81 1513.55 14.4 1513.13 16.5 1513.13L25.49 1513.13L25.49 1503.98L15.24 1503.98C7.85 1503.98 4.41 1507 4.41 1514.81L4.41 1516.58C4.41 1524.05 8.27 1528.25 16.59 1528.25L18.6 1528.25C24.82 1528.25 28.85 1527.08 34.06 1523.04L41.79 1517C46.24 1513.55 47.84 1513.13 52.29 1513.13L53.72 1513.13C57.58 1513.13 59.09 1513.97 59.09 1516.24C59.09 1518.42 57.58 1519.35 54.72 1519.35L43.8 1519.35L43.8 1528.76L56.32 1528.76ZM68.25 1622.72L68.25 1621.04C68.25 1612.64 62.7 1609.11 53.88 1609.11L5 1609.11L5 1618.77L54.47 1618.77C57.24 1618.77 58.92 1619.61 58.92 1621.88C58.92 1623.98 57.16 1624.9 54.47 1624.9L5 1624.9L5 1634.56L53.88 1634.56C62.87 1634.56 68.25 1631.12 68.25 1622.72ZM5 1584.18L5 1605.77L67.49 1605.77L67.49 1583.67L58 1583.67L58 1596.27L39.94 1596.27L39.94 1586.78L30.45 1586.78L30.45 1596.27L14.07 1596.27L14.07 1584.18L5 1584.18ZM14.07 1547.36L67.49 1547.36L67.49 1537.96L14.07 1537.96L14.07 1529.98L5 1529.98L5 1555.34L14.07 1555.34L14.07 1547.36ZM13.48 1650.58C13.48 1648.4 14.99 1647.31 18.27 1647.31L54.22 1647.31C56.91 1647.31 59.01 1647.98 59.01 1650.5C59.01 1653.19 56.91 1653.94 54.22 1653.94L18.27 1653.94C15.08 1653.94 13.48 1653.02 13.48 1650.58Z" fill="#000000" fill-opacity="1.000000" fill-rule="evenodd"/>
		<path id="quests" d="M80.51 1653.52L68.08 1653.52C67.24 1660.92 61.53 1663.6 53.55 1663.6L18.77 1663.6C10.12 1663.6 4.41 1660.33 4.41 1651.42L4.41 1649.83C4.41 1640.59 10.12 1637.65 18.69 1637.65L53.55 1637.65C61.19 1637.65 66.74 1639.92 68 1646.55L80.51 1642.18L80.51 1653.52ZM18.27 1647.31C14.99 1647.31 13.48 1648.4 13.48 1650.58C13.48 1653.02 15.08 1653.94 18.27 1653.94L54.22 1653.94C56.91 1653.94 59.01 1653.19 59.01 1650.5C59.01 1647.98 56.91 1647.31 54.22 1647.31L18.27 1647.31ZM68.25 1621.04L68.25 1622.72C68.25 1631.12 62.87 1634.56 53.88 1634.56L5 1634.56L5 1624.9L54.47 1624.9C57.16 1624.9 58.92 1623.98 58.92 1621.88C58.92 1619.61 57.24 1618.77 54.47 1618.77L5 1618.77L5 1609.11L53.88 1609.11C62.7 1609.11 68.25 1612.64 68.25 1621.04ZM5 1605.77L5 1584.18L14.07 1584.18L14.07 1596.27L30.45 1596.27L30.45 1586.78L39.94 1586.78L39.94 1596.27L58 1596.27L58 1583.67L67.49 1583.67L67.49 1605.77L5 1605.77ZM68.16 1570.4C68.16 1577.96 64.05 1581.99 56.32 1581.99L43.8 1581.99L43.8 1572.59L54.72 1572.59C57.58 1572.59 59.09 1571.66 59.09 1569.48C59.09 1567.21 57.58 1566.37 53.72 1566.37L52.29 1566.37C47.84 1566.37 46.24 1566.79 41.79 1570.23L34.06 1576.28C28.85 1580.31 24.82 1581.49 18.6 1581.49L16.59 1581.49C8.27 1581.49 4.41 1577.29 4.41 1569.81L4.41 1568.05C4.41 1560.24 7.85 1557.21 15.24 1557.21L25.49 1557.21L25.49 1566.37L16.5 1566.37C14.4 1566.37 12.81 1566.79 12.81 1569.06C12.81 1571.33 14.24 1571.83 17.18 1571.83L18.35 1571.83C21.88 1571.83 23.81 1571.16 27.93 1567.97L35.74 1561.92C41.28 1557.63 44.48 1556.29 51.53 1556.29L53.55 1556.29C62.7 1556.29 68.16 1560.24 68.16 1568.55L68.16 1570.4ZM67.49 1547.36L14.07 1547.36L14.07 1555.34L5 1555.34L5 1529.98L14.07 1529.98L14.07 1537.96L67.49 1537.96L67.49 1547.36ZM68.16 1517.16C68.16 1524.72 64.05 1528.76 56.32 1528.76L43.8 1528.76L43.8 1519.35L54.72 1519.35C57.58 1519.35 59.09 1518.42 59.09 1516.24C59.09 1513.97 57.58 1513.13 53.72 1513.13L52.29 1513.13C47.84 1513.13 46.24 1513.55 41.79 1517L34.06 1523.04C28.85 1527.08 24.82 1528.25 18.6 1528.25L16.59 1528.25C8.27 1528.25 4.41 1524.05 4.41 1516.58L4.41 1514.81C4.41 1507 7.85 1503.98 15.24 1503.98L25.49 1503.98L25.49 1513.13L16.5 1513.13C14.4 1513.13 12.81 1513.55 12.81 1515.82C12.81 1518.09 14.24 1518.59 17.18 1518.59L18.35 1518.59C21.88 1518.59 23.81 1517.92 27.93 1514.73L35.74 1508.68C41.28 1504.4 44.48 1503.05 51.53 1503.05L53.55 1503.05C62.7 1503.05 68.16 1507 68.16 1515.32L68.16 1517.16Z" stroke="#000000" stroke-opacity="1.000000" stroke-width="1.271234"/>
		<path id="✽" d="M72 1429.54C72 1426.04 68.71 1423.34 64.04 1423.34C61.75 1423.34 58.07 1424.24 52.9 1425.94C47.73 1427.64 42.96 1428.54 38.68 1428.54L37.39 1428.54C40.17 1424.14 42.46 1421.14 44.05 1419.74C47.33 1416.84 56.68 1409.24 56.68 1403.34C56.68 1399.84 54.19 1397.44 51.21 1397.44C49.52 1397.44 48.03 1398.14 46.54 1399.54C43.65 1402.34 42.26 1408.54 40.67 1415.84C39.87 1419.54 38.38 1423.44 36 1427.74C33.61 1423.34 32.02 1419.34 31.22 1415.54C30.43 1411.84 29.63 1408.54 28.74 1405.74C26.85 1399.94 23.96 1397.44 20.58 1397.44C17.5 1397.44 15.31 1399.84 15.31 1403.04C15.31 1405.04 15.91 1406.94 17.2 1408.84C18.39 1410.64 21.58 1413.94 26.75 1418.64C31.42 1423.54 31.02 1422.84 34.6 1428.54C29.83 1428.54 24.76 1427.64 19.49 1425.84C14.22 1424.04 10.34 1423.14 7.95 1423.14C3.18 1423.14 0 1425.84 0 1429.34C0 1432.94 3.38 1435.54 7.95 1435.54C11.43 1435.54 18.89 1433.04 23.66 1431.44C26.05 1430.64 29.33 1430.34 33.31 1430.34L34.6 1430.34C32.22 1434.34 29.73 1437.44 27.24 1439.64C22.27 1444.04 15.31 1450.24 15.31 1455.54C15.31 1459.04 17.6 1461.44 20.58 1461.44C22.27 1461.44 23.86 1460.74 25.35 1459.44C28.34 1456.84 29.63 1450.84 31.22 1443.34C32.02 1439.54 33.61 1435.44 36 1431.14C38.38 1435.34 39.97 1439.34 40.67 1442.94C41.37 1446.64 42.26 1449.94 43.06 1452.84C44.65 1458.74 47.93 1461.44 51.21 1461.44C54.19 1461.44 56.68 1458.84 56.68 1455.64C56.68 1450.44 51.21 1445.54 45.64 1440.54C42.86 1438.04 40.07 1434.74 37.39 1430.34C42.56 1430.34 47.53 1431.24 52.7 1433.04C57.77 1434.84 61.55 1435.74 64.04 1435.74C68.51 1435.74 72 1433.24 72 1429.54Z" fill="#000000" fill-opacity="1.000000" fill-rule="nonzero"/>
		<path id="JJ show" d="M56.32 1294.39C64.05 1294.39 68.16 1290.36 68.16 1282.8L68.16 1280.94C68.16 1272.63 62.7 1268.68 53.55 1268.68L51.53 1268.68C44.48 1268.68 41.28 1270.03 35.74 1274.31L27.93 1280.36C23.81 1283.55 21.88 1284.22 18.35 1284.22L17.18 1284.22C14.24 1284.22 12.81 1283.72 12.81 1281.44C12.81 1279.18 14.4 1278.77 16.5 1278.77L25.49 1278.77L25.49 1269.61L15.24 1269.61C7.85 1269.61 4.41 1272.63 4.41 1280.43L4.41 1282.21C4.41 1289.68 8.27 1293.89 16.59 1293.89L18.6 1293.89C24.82 1293.89 28.85 1292.71 34.06 1288.68L41.79 1282.63C46.24 1279.18 47.84 1278.77 52.29 1278.77L53.72 1278.77C57.58 1278.77 59.09 1279.6 59.09 1281.87C59.09 1284.06 57.58 1284.98 54.72 1284.98L43.8 1284.98L43.8 1294.39L56.32 1294.39ZM4.41 1223.51L4.41 1225.1C4.41 1234.01 10.12 1237.28 18.77 1237.28L53.55 1237.28C62.28 1237.28 68.25 1234.09 68.25 1225.02L68.25 1223.42C68.25 1214.27 62.28 1211.32 53.55 1211.32L18.69 1211.32C10.12 1211.32 4.41 1214.27 4.41 1223.51ZM39.94 1346.34L39.94 1355.66L56.66 1355.66C65.22 1355.66 68 1351.38 68 1345.25L68 1342.64C68 1336.09 64.22 1331.89 56.07 1331.89L5 1331.89L5 1341.55L55.31 1341.55C57.24 1341.55 58.76 1341.97 58.76 1343.74L58.76 1344.07C58.76 1345.84 57.5 1346.34 55.31 1346.34L39.94 1346.34ZM39.94 1320.01L39.94 1329.33L56.66 1329.33C65.22 1329.33 68 1325.05 68 1318.92L68 1316.31C68 1309.76 64.22 1305.56 56.07 1305.56L5 1305.56L5 1315.22L55.31 1315.22C57.24 1315.22 58.76 1315.64 58.76 1317.4L58.76 1317.74C58.76 1319.5 57.5 1320.01 55.31 1320.01L39.94 1320.01ZM5 1265.99L67.49 1265.99L67.49 1256.5L40.02 1256.5L40.02 1250.03L67.49 1250.03L67.49 1240.54L5 1240.54L5 1250.03L30.03 1250.03L30.03 1256.5L5 1256.5L5 1265.99ZM67.49 1202.52L67.49 1192.02L31.12 1187.99L67.49 1184.04L67.49 1173.88L5 1165.9L5 1174.8L45.4 1179.07L5 1183.44L5 1192.27L45.4 1196.47L5 1200.76L5 1210.32L67.49 1202.52ZM13.48 1224.26C13.48 1222.07 14.99 1220.99 18.27 1220.99L54.22 1220.99C56.91 1220.99 59.01 1221.66 59.01 1224.18C59.01 1226.87 56.91 1227.62 54.22 1227.62L18.27 1227.62C15.08 1227.62 13.48 1226.69 13.48 1224.26Z" fill="#000000" fill-opacity="1.000000" fill-rule="evenodd"/>
		<path id="JJ show" d="M39.94 1355.66L39.94 1346.34L55.31 1346.34C57.5 1346.34 58.76 1345.84 58.76 1344.07L58.76 1343.74C58.76 1341.97 57.24 1341.55 55.31 1341.55L5 1341.55L5 1331.89L56.07 1331.89C64.22 1331.89 68 1336.09 68 1342.64L68 1345.25C68 1351.38 65.22 1355.66 56.66 1355.66L39.94 1355.66ZM39.94 1329.33L39.94 1320.01L55.31 1320.01C57.5 1320.01 58.76 1319.5 58.76 1317.74L58.76 1317.4C58.76 1315.64 57.24 1315.22 55.31 1315.22L5 1315.22L5 1305.56L56.07 1305.56C64.22 1305.56 68 1309.76 68 1316.31L68 1318.92C68 1325.05 65.22 1329.33 56.66 1329.33L39.94 1329.33ZM68.16 1282.8C68.16 1290.36 64.05 1294.39 56.32 1294.39L43.8 1294.39L43.8 1284.98L54.72 1284.98C57.58 1284.98 59.09 1284.06 59.09 1281.87C59.09 1279.6 57.58 1278.77 53.72 1278.77L52.29 1278.77C47.84 1278.77 46.24 1279.18 41.79 1282.63L34.06 1288.68C28.85 1292.71 24.82 1293.89 18.6 1293.89L16.59 1293.89C8.27 1293.89 4.41 1289.68 4.41 1282.21L4.41 1280.43C4.41 1272.63 7.85 1269.61 15.24 1269.61L25.49 1269.61L25.49 1278.77L16.5 1278.77C14.4 1278.77 12.81 1279.18 12.81 1281.44C12.81 1283.72 14.24 1284.22 17.18 1284.22L18.35 1284.22C21.88 1284.22 23.81 1283.55 27.93 1280.36L35.74 1274.31C41.28 1270.03 44.48 1268.68 51.53 1268.68L53.55 1268.68C62.7 1268.68 68.16 1272.63 68.16 1280.94L68.16 1282.8ZM67.49 1265.99L5 1265.99L5 1256.5L30.03 1256.5L30.03 1250.03L5 1250.03L5 1240.54L67.49 1240.54L67.49 1250.03L40.02 1250.03L40.02 1256.5L67.49 1256.5L67.49 1265.99ZM4.41 1225.1L4.41 1223.51C4.41 1214.27 10.12 1211.32 18.69 1211.32L53.55 1211.32C62.28 1211.32 68.25 1214.27 68.25 1223.42L68.25 1225.02C68.25 1234.09 62.28 1237.28 53.55 1237.28L18.77 1237.28C10.12 1237.28 4.41 1234.01 4.41 1225.1ZM18.27 1220.99C14.99 1220.99 13.48 1222.07 13.48 1224.26C13.48 1226.69 15.08 1227.62 18.27 1227.62L54.22 1227.62C56.91 1227.62 59.01 1226.87 59.01 1224.18C59.01 1221.66 56.91 1220.99 54.22 1220.99L18.27 1220.99ZM67.49 1192.02L67.49 1202.52L5 1210.32L5 1200.76L45.4 1196.47L5 1192.27L5 1183.44L45.4 1179.07L5 1174.8L5 1165.9L67.49 1173.88L67.49 1184.04L31.12 1187.99L67.49 1192.02Z" stroke="#000000" stroke-opacity="1.000000" stroke-width="1.271234"/>
		<path id="✽" d="M72 1093.18C72 1089.68 68.71 1086.98 64.04 1086.98C61.75 1086.98 58.07 1087.88 52.9 1089.57C47.73 1091.28 42.96 1092.18 38.68 1092.18L37.39 1092.18C40.17 1087.78 42.46 1084.78 44.05 1083.38C47.33 1080.48 56.68 1072.88 56.68 1066.98C56.68 1063.48 54.19 1061.07 51.21 1061.07C49.52 1061.07 48.03 1061.78 46.54 1063.18C43.65 1065.98 42.26 1072.18 40.67 1079.48C39.87 1083.18 38.38 1087.07 36 1091.38C33.61 1086.98 32.02 1082.98 31.22 1079.18C30.43 1075.48 29.63 1072.18 28.74 1069.38C26.85 1063.57 23.96 1061.07 20.58 1061.07C17.5 1061.07 15.31 1063.48 15.31 1066.68C15.31 1068.68 15.91 1070.57 17.2 1072.48C18.39 1074.28 21.58 1077.57 26.75 1082.28C31.42 1087.18 31.02 1086.48 34.6 1092.18C29.83 1092.18 24.76 1091.28 19.49 1089.48C14.22 1087.68 10.34 1086.78 7.95 1086.78C3.18 1086.78 0 1089.48 0 1092.98C0 1096.57 3.38 1099.18 7.95 1099.18C11.43 1099.18 18.89 1096.68 23.66 1095.07C26.05 1094.28 29.33 1093.98 33.31 1093.98L34.6 1093.98C32.22 1097.98 29.73 1101.07 27.24 1103.28C22.27 1107.68 15.31 1113.88 15.31 1119.18C15.31 1122.68 17.6 1125.07 20.58 1125.07C22.27 1125.07 23.86 1124.38 25.35 1123.07C28.34 1120.48 29.63 1114.48 31.22 1106.98C32.02 1103.18 33.61 1099.07 36 1094.78C38.38 1098.98 39.97 1102.98 40.67 1106.57C41.37 1110.28 42.26 1113.57 43.06 1116.48C44.65 1122.38 47.93 1125.07 51.21 1125.07C54.19 1125.07 56.68 1122.48 56.68 1119.28C56.68 1114.07 51.21 1109.18 45.64 1104.18C42.86 1101.68 40.07 1098.38 37.39 1093.98C42.56 1093.98 47.53 1094.88 52.7 1096.68C57.77 1098.48 61.55 1099.38 64.04 1099.38C68.51 1099.38 72 1096.88 72 1093.18Z" fill="#000000" fill-opacity="1.000000" fill-rule="nonzero"/>
		<path id="birthday" d="M5 1018.63L67.49 1018.63L67.49 1003.01C67.49 995.87 62.7 992.93 56.07 992.93L42.54 992.93C36.33 992.93 34.23 995.87 33.39 998.39C32.46 995.95 29.94 993.68 24.74 993.68L15.16 993.68C9.11 993.68 5 995.78 5 1003.68L5 1018.63ZM67.49 980.51L5 980.51L5 990L67.49 990L67.49 980.51ZM67.49 967.47L39.6 967.47L39.6 965.03C39.6 962.01 40.78 961.5 43.55 961.5L62.37 961.5C65.73 961.5 66.82 961 67.49 960.58L67.49 951.17L67.07 951.17C66.15 951.59 64.97 952.09 62.45 952.09L40.53 952.09C36.33 952.09 34.65 954.11 33.72 956.21C32.97 954.53 30.95 952.09 25.74 952.09L14.66 952.09C7.68 952.09 5 955.29 5 961.59L5 976.96L67.49 976.96L67.49 967.47ZM14.07 942.43L67.49 942.43L67.49 933.02L14.07 933.02L14.07 925.04L5 925.04L5 950.41L14.07 950.41L14.07 942.43ZM5 922.65L67.49 922.65L67.49 913.16L40.02 913.16L40.02 906.69L67.49 906.69L67.49 897.2L5 897.2L5 906.69L30.03 906.69L30.03 913.16L5 913.16L5 922.65ZM5 893.7L67.49 893.7L67.49 879.16C67.49 871.35 62.7 868.5 55.06 868.5L17.01 868.5C9.62 868.5 5 871.02 5 879.16L5 893.7ZM55.73 850.94L67.49 849.68L67.49 840.53L5 848.67L5 859.93L67.49 867.57L67.49 859.09L55.73 857.83L55.73 850.94ZM41.45 836.04L67.49 836.04L67.49 826.55L41.54 826.55L5 818.24L5 826.8L28.26 831L5 835.37L5 844.61L41.45 836.04ZM13.48 1009.14L13.48 1006.29C13.48 1003.68 14.91 1003.01 17.43 1003.01L25.32 1003.01C27.93 1003.01 29.69 1003.77 29.69 1006.29L29.69 1009.14L13.48 1009.14ZM30.7 967.47L13.48 967.47L13.48 964.95C13.48 962.09 14.82 961.5 17.51 961.5L26.25 961.5C29.02 961.5 30.7 962.34 30.7 964.95L30.7 967.47ZM58.42 884.2L13.48 884.2L13.48 881.52C13.48 879.16 14.74 878.24 18.35 878.24L53.55 878.24C56.91 878.24 58.42 879.08 58.42 881.94L58.42 884.2ZM23.31 854.47L46.41 851.95L46.41 856.91L23.31 854.47ZM39.02 1009.14L39.02 1006.29C39.02 1003.26 40.44 1002.59 43.05 1002.59L54.47 1002.59C57.24 1002.59 58.67 1003.26 58.67 1006.29L58.67 1009.14L39.02 1009.14Z" fill="#000000" fill-opacity="1.000000" fill-rule="evenodd"/>
		<path id="birthday" d="M67.49 1018.63L5 1018.63L5 1003.68C5 995.78 9.11 993.68 15.16 993.68L24.74 993.68C29.94 993.68 32.46 995.95 33.39 998.39C34.23 995.87 36.33 992.93 42.54 992.93L56.07 992.93C62.7 992.93 67.49 995.87 67.49 1003.01L67.49 1018.63ZM13.48 1006.29L13.48 1009.14L29.69 1009.14L29.69 1006.29C29.69 1003.77 27.93 1003.01 25.32 1003.01L17.43 1003.01C14.91 1003.01 13.48 1003.68 13.48 1006.29ZM39.02 1006.29L39.02 1009.14L58.67 1009.14L58.67 1006.29C58.67 1003.26 57.24 1002.59 54.47 1002.59L43.05 1002.59C40.44 1002.59 39.02 1003.26 39.02 1006.29ZM5 980.51L67.49 980.51L67.49 990L5 990L5 980.51ZM13.48 967.47L30.7 967.47L30.7 964.95C30.7 962.34 29.02 961.5 26.25 961.5L17.51 961.5C14.82 961.5 13.48 962.09 13.48 964.95L13.48 967.47ZM39.6 967.47L67.49 967.47L67.49 976.96L5 976.96L5 961.59C5 955.29 7.68 952.09 14.66 952.09L25.74 952.09C30.95 952.09 32.97 954.53 33.72 956.21C34.65 954.11 36.33 952.09 40.53 952.09L62.45 952.09C64.97 952.09 66.15 951.59 67.07 951.17L67.49 951.17L67.49 960.58C66.82 961 65.73 961.5 62.37 961.5L43.55 961.5C40.78 961.5 39.6 962.01 39.6 965.03L39.6 967.47ZM67.49 942.43L14.07 942.43L14.07 950.41L5 950.41L5 925.04L14.07 925.04L14.07 933.02L67.49 933.02L67.49 942.43ZM67.49 922.65L5 922.65L5 913.16L30.03 913.16L30.03 906.69L5 906.69L5 897.2L67.49 897.2L67.49 906.69L40.02 906.69L40.02 913.16L67.49 913.16L67.49 922.65ZM67.49 893.7L5 893.7L5 879.16C5 871.02 9.62 868.5 17.01 868.5L55.06 868.5C62.7 868.5 67.49 871.35 67.49 879.16L67.49 893.7ZM13.48 884.2L58.42 884.2L58.42 881.94C58.42 879.08 56.91 878.24 53.55 878.24L18.35 878.24C14.74 878.24 13.48 879.16 13.48 881.52L13.48 884.2ZM46.41 851.95L23.31 854.47L46.41 856.91L46.41 851.95ZM67.49 849.68L55.73 850.94L55.73 857.83L67.49 859.09L67.49 867.57L5 859.93L5 848.67L67.49 840.53L67.49 849.68ZM67.49 836.04L41.45 836.04L5 844.61L5 835.37L28.26 831L5 826.8L5 818.24L41.54 826.55L67.49 826.55L67.49 836.04Z" stroke="#000000" stroke-opacity="1.000000" stroke-width="1.271234"/>
		<path id="✽" d="M72 745.81C72 742.31 68.71 739.61 64.04 739.61C61.75 739.61 58.07 740.51 52.9 742.21C47.73 743.91 42.96 744.81 38.68 744.81L37.39 744.81C40.17 740.41 42.46 737.41 44.05 736.01C47.33 733.11 56.68 725.51 56.68 719.61C56.68 716.11 54.19 713.71 51.21 713.71C49.52 713.71 48.03 714.41 46.54 715.81C43.65 718.61 42.26 724.81 40.67 732.11C39.87 735.81 38.38 739.71 36 744.01C33.61 739.61 32.02 735.61 31.22 731.81C30.43 728.11 29.63 724.81 28.74 722.01C26.85 716.21 23.96 713.71 20.58 713.71C17.5 713.71 15.31 716.11 15.31 719.31C15.31 721.31 15.91 723.21 17.2 725.11C18.39 726.91 21.58 730.21 26.75 734.91C31.42 739.81 31.02 739.11 34.6 744.81C29.83 744.81 24.76 743.91 19.49 742.11C14.22 740.31 10.34 739.41 7.95 739.41C3.18 739.41 0 742.11 0 745.61C0 749.21 3.38 751.81 7.95 751.81C11.43 751.81 18.89 749.31 23.66 747.71C26.05 746.91 29.33 746.61 33.31 746.61L34.6 746.61C32.22 750.61 29.73 753.71 27.24 755.91C22.27 760.31 15.31 766.51 15.31 771.81C15.31 775.31 17.6 777.71 20.58 777.71C22.27 777.71 23.86 777.01 25.35 775.71C28.34 773.11 29.63 767.11 31.22 759.61C32.02 755.81 33.61 751.71 36 747.41C38.38 751.61 39.97 755.61 40.67 759.21C41.37 762.91 42.26 766.21 43.06 769.11C44.65 775.01 47.93 777.71 51.21 777.71C54.19 777.71 56.68 775.11 56.68 771.91C56.68 766.71 51.21 761.81 45.64 756.81C42.86 754.31 40.07 751.01 37.39 746.61C42.56 746.61 47.53 747.51 52.7 749.31C57.77 751.11 61.55 752.01 64.04 752.01C68.51 752.01 72 749.51 72 745.81Z" fill="#000000" fill-opacity="1.000000" fill-rule="nonzero"/>
		<path id="celebrate" d="M54.81 655.73C57.33 655.73 59.01 656.57 59.01 658.84C59.01 660.94 57.5 661.86 54.72 661.86L17.6 661.86C14.82 661.86 13.48 661.27 13.48 658.92C13.48 656.57 14.91 655.73 17.6 655.73L28.6 655.73L28.6 646.41L17.43 646.41C11.3 646.41 4.41 647.58 4.41 658L4.41 660.18C4.41 668.75 10.54 671.52 16.92 671.52L55.06 671.52C61.36 671.52 68.25 669.42 68.25 659.85L68.25 657.75C68.25 648.59 61.44 646.41 54.72 646.41L40.28 646.41L40.28 655.73L54.81 655.73ZM5 621.79L5 643.38L67.49 643.38L67.49 621.29L58 621.29L58 633.89L39.94 633.89L39.94 624.4L30.45 624.4L30.45 633.89L14.07 633.89L14.07 621.79L5 621.79ZM5 609.36L5 618.85L67.49 618.85L67.49 597.77L57.83 597.77L57.83 609.36L5 609.36ZM5 573.72L5 595.31L67.49 595.31L67.49 573.22L58 573.22L58 585.82L39.94 585.82L39.94 576.33L30.45 576.33L30.45 585.82L14.07 585.82L14.07 573.72L5 573.72ZM5 570.78L67.49 570.78L67.49 555.16C67.49 548.02 62.7 545.08 56.07 545.08L42.54 545.08C36.33 545.08 34.23 548.02 33.39 550.54C32.46 548.1 29.94 545.83 24.74 545.83L15.16 545.83C9.11 545.83 5 547.93 5 555.83L5 570.78ZM67.49 532.66L39.6 532.66L39.6 530.22C39.6 527.2 40.78 526.7 43.55 526.7L62.37 526.7C65.73 526.7 66.82 526.19 67.49 525.77L67.49 516.37L67.07 516.37C66.15 516.78 64.97 517.29 62.45 517.29L40.53 517.29C36.33 517.29 34.65 519.31 33.72 521.4C32.97 519.72 30.95 517.29 25.74 517.29L14.66 517.29C7.68 517.29 5 520.48 5 526.78L5 542.15L67.49 542.15L67.49 532.66ZM55.73 499.15L67.49 497.89L67.49 488.74L5 496.89L5 508.14L67.49 515.79L67.49 507.3L55.73 506.04L55.73 499.15ZM14.07 484.33L67.49 484.33L67.49 474.92L14.07 474.92L14.07 466.94L5 466.94L5 492.31L14.07 492.31L14.07 484.33ZM5 442.96L5 464.55L67.49 464.55L67.49 442.46L58 442.46L58 455.06L39.94 455.06L39.94 445.57L30.45 445.57L30.45 455.06L14.07 455.06L14.07 442.96L5 442.96ZM13.48 561.29L13.48 558.43C13.48 555.83 14.91 555.16 17.43 555.16L25.32 555.16C27.93 555.16 29.69 555.91 29.69 558.43L29.69 561.29L13.48 561.29ZM30.7 532.66L13.48 532.66L13.48 530.14C13.48 527.28 14.82 526.7 17.51 526.7L26.25 526.7C29.02 526.7 30.7 527.54 30.7 530.14L30.7 532.66ZM23.31 502.68L46.41 500.16L46.41 505.12L23.31 502.68ZM39.02 561.29L39.02 558.43C39.02 555.41 40.44 554.74 43.05 554.74L54.47 554.74C57.24 554.74 58.67 555.41 58.67 558.43L58.67 561.29L39.02 561.29Z" fill="#000000" fill-opacity="1.000000" fill-rule="evenodd"/>
		<path id="celebrate" d="M59.01 658.84C59.01 656.57 57.33 655.73 54.81 655.73L40.28 655.73L40.28 646.41L54.72 646.41C61.44 646.41 68.25 648.59 68.25 657.75L68.25 659.85C68.25 669.42 61.36 671.52 55.06 671.52L16.92 671.52C10.54 671.52 4.41 668.75 4.41 660.18L4.41 658C4.41 647.58 11.3 646.41 17.43 646.41L28.6 646.41L28.6 655.73L17.6 655.73C14.91 655.73 13.48 656.57 13.48 658.92C13.48 661.27 14.82 661.86 17.6 661.86L54.72 661.86C57.5 661.86 59.01 660.94 59.01 658.84ZM5 643.38L5 621.79L14.07 621.79L14.07 633.89L30.45 633.89L30.45 624.4L39.94 624.4L39.94 633.89L58 633.89L58 621.29L67.49 621.29L67.49 643.38L5 643.38ZM5 618.85L5 609.36L57.83 609.36L57.83 597.77L67.49 597.77L67.49 618.85L5 618.85ZM5 595.31L5 573.72L14.07 573.72L14.07 585.82L30.45 585.82L30.45 576.33L39.94 576.33L39.94 585.82L58 585.82L58 573.22L67.49 573.22L67.49 595.31L5 595.31ZM67.49 570.78L5 570.78L5 555.83C5 547.93 9.11 545.83 15.16 545.83L24.74 545.83C29.94 545.83 32.46 548.1 33.39 550.54C34.23 548.02 36.33 545.08 42.54 545.08L56.07 545.08C62.7 545.08 67.49 548.02 67.49 555.16L67.49 570.78ZM13.48 558.43L13.48 561.29L29.69 561.29L29.69 558.43C29.69 555.91 27.93 555.16 25.32 555.16L17.43 555.16C14.91 555.16 13.48 555.83 13.48 558.43ZM39.02 558.43L39.02 561.29L58.67 561.29L58.67 558.43C58.67 555.41 57.24 554.74 54.47 554.74L43.05 554.74C40.44 554.74 39.02 555.41 39.02 558.43ZM13.48 532.66L30.7 532.66L30.7 530.14C30.7 527.54 29.02 526.7 26.25 526.7L17.51 526.7C14.82 526.7 13.48 527.28 13.48 530.14L13.48 532.66ZM39.6 532.66L67.49 532.66L67.49 542.15L5 542.15L5 526.78C5 520.48 7.68 517.29 14.66 517.29L25.74 517.29C30.95 517.29 32.97 519.72 33.72 521.4C34.65 519.31 36.33 517.29 40.53 517.29L62.45 517.29C64.97 517.29 66.15 516.78 67.07 516.37L67.49 516.37L67.49 525.77C66.82 526.19 65.73 526.7 62.37 526.7L43.55 526.7C40.78 526.7 39.6 527.2 39.6 530.22L39.6 532.66ZM46.41 500.16L23.31 502.68L46.41 505.12L46.41 500.16ZM67.49 497.89L55.73 499.15L55.73 506.04L67.49 507.3L67.49 515.79L5 508.14L5 496.89L67.49 488.74L67.49 497.89ZM67.49 484.33L14.07 484.33L14.07 492.31L5 492.31L5 466.94L14.07 466.94L14.07 474.92L67.49 474.92L67.49 484.33ZM5 464.55L5 442.96L14.07 442.96L14.07 455.06L30.45 455.06L30.45 445.57L39.94 445.57L39.94 455.06L58 455.06L58 442.46L67.49 442.46L67.49 464.55L5 464.55Z" stroke="#000000" stroke-opacity="1.000000" stroke-width="1.271234"/>
		<path id="✽" d="M72 368.45C72 364.95 68.71 362.25 64.04 362.25C61.75 362.25 58.07 363.15 52.9 364.85C47.73 366.55 42.96 367.45 38.68 367.45L37.39 367.45C40.17 363.05 42.46 360.05 44.05 358.65C47.33 355.75 56.68 348.15 56.68 342.25C56.68 338.75 54.19 336.35 51.21 336.35C49.52 336.35 48.03 337.05 46.54 338.45C43.65 341.25 42.26 347.45 40.67 354.75C39.87 358.45 38.38 362.35 36 366.65C33.61 362.25 32.02 358.25 31.22 354.45C30.43 350.75 29.63 347.45 28.74 344.65C26.85 338.85 23.96 336.35 20.58 336.35C17.5 336.35 15.31 338.75 15.31 341.95C15.31 343.95 15.91 345.85 17.2 347.75C18.39 349.55 21.58 352.85 26.75 357.55C31.42 362.45 31.02 361.75 34.6 367.45C29.83 367.45 24.76 366.55 19.49 364.75C14.22 362.95 10.34 362.05 7.95 362.05C3.18 362.05 0 364.75 0 368.25C0 371.85 3.38 374.45 7.95 374.45C11.43 374.45 18.89 371.95 23.66 370.35C26.05 369.55 29.33 369.25 33.31 369.25L34.6 369.25C32.22 373.25 29.73 376.35 27.24 378.55C22.27 382.95 15.31 389.15 15.31 394.45C15.31 397.95 17.6 400.35 20.58 400.35C22.27 400.35 23.86 399.65 25.35 398.35C28.34 395.75 29.63 389.75 31.22 382.25C32.02 378.45 33.61 374.35 36 370.05C38.38 374.25 39.97 378.25 40.67 381.85C41.37 385.55 42.26 388.85 43.06 391.75C44.65 397.65 47.93 400.35 51.21 400.35C54.19 400.35 56.68 397.75 56.68 394.55C56.68 389.35 51.21 384.45 45.64 379.45C42.86 376.95 40.07 373.65 37.39 369.25C42.56 369.25 47.53 370.15 52.7 371.95C57.77 373.75 61.55 374.65 64.04 374.65C68.51 374.65 72 372.15 72 368.45Z" fill="#000000" fill-opacity="1.000000" fill-rule="nonzero"/>
		<path id="JJ show" d="M56.32 233.31C64.05 233.31 68.16 229.28 68.16 221.72L68.16 219.87C68.16 211.55 62.7 207.6 53.55 207.6L51.53 207.6C44.48 207.6 41.28 208.95 35.74 213.23L27.93 219.28C23.81 222.47 21.88 223.14 18.35 223.14L17.18 223.14C14.24 223.14 12.81 222.64 12.81 220.37C12.81 218.1 14.4 217.68 16.5 217.68L25.49 217.68L25.49 208.53L15.24 208.53C7.85 208.53 4.41 211.55 4.41 219.36L4.41 221.13C4.41 228.6 8.27 232.8 16.59 232.8L18.6 232.8C24.82 232.8 28.85 231.63 34.06 227.6L41.79 221.55C46.24 218.1 47.84 217.68 52.29 217.68L53.72 217.68C57.58 217.68 59.09 218.52 59.09 220.79C59.09 222.98 57.58 223.9 54.72 223.9L43.8 223.9L43.8 233.31L56.32 233.31ZM4.41 162.43L4.41 164.02C4.41 172.93 10.12 176.2 18.77 176.2L53.55 176.2C62.28 176.2 68.25 173.01 68.25 163.94L68.25 162.34C68.25 153.19 62.28 150.25 53.55 150.25L18.69 150.25C10.12 150.25 4.41 153.19 4.41 162.43ZM39.94 285.26L39.94 294.58L56.66 294.58C65.22 294.58 68 290.3 68 284.17L68 281.56C68 275.01 64.22 270.81 56.07 270.81L5 270.81L5 280.47L55.31 280.47C57.24 280.47 58.76 280.89 58.76 282.66L58.76 282.99C58.76 284.76 57.5 285.26 55.31 285.26L39.94 285.26ZM39.94 258.93L39.94 268.25L56.66 268.25C65.22 268.25 68 263.97 68 257.84L68 255.23C68 248.68 64.22 244.48 56.07 244.48L5 244.48L5 254.14L55.31 254.14C57.24 254.14 58.76 254.56 58.76 256.32L58.76 256.66C58.76 258.42 57.5 258.93 55.31 258.93L39.94 258.93ZM5 204.91L67.49 204.91L67.49 195.42L40.02 195.42L40.02 188.95L67.49 188.95L67.49 179.46L5 179.46L5 188.95L30.03 188.95L30.03 195.42L5 195.42L5 204.91ZM67.49 141.44L67.49 130.94L31.12 126.91L67.49 122.96L67.49 112.8L5 104.82L5 113.72L45.4 118L5 122.37L5 131.19L45.4 135.39L5 139.67L5 149.25L67.49 141.44ZM13.48 163.18C13.48 161 14.99 159.91 18.27 159.91L54.22 159.91C56.91 159.91 59.01 160.58 59.01 163.1C59.01 165.79 56.91 166.54 54.22 166.54L18.27 166.54C15.08 166.54 13.48 165.62 13.48 163.18Z" fill="#000000" fill-opacity="1.000000" fill-rule="evenodd"/>
		<path id="JJ show" d="M39.94 294.58L39.94 285.26L55.31 285.26C57.5 285.26 58.76 284.76 58.76 282.99L58.76 282.66C58.76 280.89 57.24 280.47 55.31 280.47L5 280.47L5 270.81L56.07 270.81C64.22 270.81 68 275.01 68 281.56L68 284.17C68 290.3 65.22 294.58 56.66 294.58L39.94 294.58ZM39.94 268.25L39.94 258.93L55.31 258.93C57.5 258.93 58.76 258.42 58.76 256.66L58.76 256.32C58.76 254.56 57.24 254.14 55.31 254.14L5 254.14L5 244.48L56.07 244.48C64.22 244.48 68 248.68 68 255.23L68 257.84C68 263.97 65.22 268.25 56.66 268.25L39.94 268.25ZM68.16 221.72C68.16 229.28 64.05 233.31 56.32 233.31L43.8 233.31L43.8 223.9L54.72 223.9C57.58 223.9 59.09 222.98 59.09 220.79C59.09 218.52 57.58 217.68 53.72 217.68L52.29 217.68C47.84 217.68 46.24 218.1 41.79 221.55L34.06 227.6C28.85 231.63 24.82 232.8 18.6 232.8L16.59 232.8C8.27 232.8 4.41 228.6 4.41 221.13L4.41 219.36C4.41 211.55 7.85 208.53 15.24 208.53L25.49 208.53L25.49 217.68L16.5 217.68C14.4 217.68 12.81 218.1 12.81 220.37C12.81 222.64 14.24 223.14 17.18 223.14L18.35 223.14C21.88 223.14 23.81 222.47 27.93 219.28L35.74 213.23C41.28 208.95 44.48 207.6 51.53 207.6L53.55 207.6C62.7 207.6 68.16 211.55 68.16 219.87L68.16 221.72ZM67.49 204.91L5 204.91L5 195.42L30.03 195.42L30.03 188.95L5 188.95L5 179.46L67.49 179.46L67.49 188.95L40.02 188.95L40.02 195.42L67.49 195.42L67.49 204.91ZM4.41 164.02L4.41 162.43C4.41 153.19 10.12 150.25 18.69 150.25L53.55 150.25C62.28 150.25 68.25 153.19 68.25 162.34L68.25 163.94C68.25 173.01 62.28 176.2 53.55 176.2L18.77 176.2C10.12 176.2 4.41 172.93 4.41 164.02ZM18.27 159.91C14.99 159.91 13.48 161 13.48 163.18C13.48 165.62 15.08 166.54 18.27 166.54L54.22 166.54C56.91 166.54 59.01 165.79 59.01 163.1C59.01 160.58 56.91 159.91 54.22 159.91L18.27 159.91ZM67.49 130.94L67.49 141.44L5 149.25L5 139.67L45.4 135.39L5 131.19L5 122.37L45.4 118L5 113.72L5 104.82L67.49 112.8L67.49 122.96L31.12 126.91L67.49 130.94Z" stroke="#000000" stroke-opacity="1.000000" stroke-width="1.271234"/>
		<path id="✽" d="M72 32.1C72 28.6 68.71 25.9 64.04 25.9C61.75 25.9 58.07 26.8 52.9 28.5C47.73 30.2 42.96 31.1 38.68 31.1L37.39 31.1C40.17 26.7 42.46 23.7 44.05 22.3C47.33 19.4 56.68 11.8 56.68 5.9C56.68 2.4 54.19 0 51.21 0C49.52 0 48.03 0.7 46.54 2.1C43.65 4.9 42.26 11.1 40.67 18.4C39.87 22.1 38.38 26 36 30.3C33.61 25.9 32.02 21.9 31.22 18.1C30.43 14.4 29.63 11.1 28.74 8.3C26.85 2.5 23.96 0 20.58 0C17.5 0 15.31 2.4 15.31 5.6C15.31 7.6 15.91 9.5 17.2 11.4C18.39 13.2 21.58 16.5 26.75 21.2C31.42 26.1 31.02 25.4 34.6 31.1C29.83 31.1 24.76 30.2 19.49 28.4C14.22 26.6 10.34 25.7 7.95 25.7C3.18 25.7 0 28.4 0 31.9C0 35.5 3.38 38.1 7.95 38.1C11.43 38.1 18.89 35.6 23.66 34C26.05 33.2 29.33 32.9 33.31 32.9L34.6 32.9C32.22 36.9 29.73 40 27.24 42.2C22.27 46.6 15.31 52.8 15.31 58.1C15.31 61.6 17.6 64 20.58 64C22.27 64 23.86 63.3 25.35 62C28.34 59.4 29.63 53.4 31.22 45.9C32.02 42.1 33.61 38 36 33.7C38.38 37.9 39.97 41.9 40.67 45.5C41.37 49.2 42.26 52.5 43.06 55.4C44.65 61.3 47.93 64 51.21 64C54.19 64 56.68 61.4 56.68 58.2C56.68 53 51.21 48.1 45.64 43.1C42.86 40.6 40.07 37.3 37.39 32.9C42.56 32.9 47.53 33.8 52.7 35.6C57.77 37.4 61.55 38.3 64.04 38.3C68.51 38.3 72 35.8 72 32.1Z" fill="#000000" fill-opacity="1.000000" fill-rule="nonzero"/>
	</g>
</svg>
