<svg width="16.000000" height="16.000000" viewBox="0 0 16 16" fill="none" xmlns="http://www.w3.org/2000/svg" xmlns:xlink="http://www.w3.org/1999/xlink">
	<desc>
			Created with Pixso.
	</desc>
	<defs/>
	<path id="Vector" d="M9 6.99C9.73 6.68 10.8 6.48 12 6.48C14.2 6.48 16 7.16 16 8C16 8.83 14.2 9.51 12 9.51C10.8 9.51 9.73 9.31 9 9C9.31 9.73 9.51 10.8 9.51 12C9.51 14.2 8.83 16 8 16C7.16 16 6.48 14.2 6.48 12C6.48 10.8 6.68 9.73 6.99 9C6.26 9.31 5.19 9.51 4 9.51C1.79 9.51 0 8.83 0 8C0 7.16 1.79 6.48 4 6.48C5.19 6.48 6.26 6.68 6.99 6.99C6.68 6.26 6.48 5.19 6.48 4C6.48 1.79 7.16 0 8 0C8.83 0 9.51 1.79 9.51 4C9.51 5.19 9.31 6.26 9 6.99Z" fill="#000000" fill-opacity="1.000000" fill-rule="nonzero"/>
</svg>
