<svg width="40.000168" height="40.000122" viewBox="0 0 40.0002 40.0001" fill="none" xmlns="http://www.w3.org/2000/svg" xmlns:xlink="http://www.w3.org/1999/xlink">
	<desc>
			Created with Pixso.
	</desc>
	<defs/>
	<path id="J" d="M12.52 24.16L14.3 24.16C24.35 24.16 26.66 17.47 26.66 12.54L26.66 0L19.24 0L19.24 12.35C19.24 15.97 17.43 18.24 13.57 18.24L13.19 18.24C8.08 18.24 7.57 14.72 7.48 13.66L0 13.66L0 13.85C0 18.37 2.69 24.16 12.52 24.16Z" fill="#0267FF" fill-opacity="1.000000" fill-rule="nonzero"/>
	<path id="J" d="M25.85 39.99L27.63 39.99C37.68 39.99 39.99 33.31 39.99 28.38L39.99 15.83L32.58 15.83L32.58 28.18C32.58 31.8 30.77 34.07 26.9 34.07L26.52 34.07C21.41 34.07 20.91 30.55 20.81 29.5L13.33 29.5L13.33 29.69C13.33 34.2 16.02 39.99 25.85 39.99Z" fill="#F269AF" fill-opacity="1.000000" fill-rule="nonzero"/>
</svg>
